<mxfile host="drawio-plugin" modified="2021-12-12T14:15:49.095Z" agent="5.0 (Windows NT 6.2; Win64; x64) AppleWebKit/537.36 (KHTML, like Gecko) Chrome/89.0.4389.114 Safari/537.36" etag="l4XAS1klQpLDY90BqDud" version="14.7.4" type="embed"><diagram name="Page-1" id="9f46799a-70d6-7492-0946-bef42562c5a5"><mxGraphModel dx="5353" dy="3583" grid="1" gridSize="10" guides="1" tooltips="1" connect="1" arrows="1" fold="1" page="1" pageScale="1" pageWidth="1100" pageHeight="850" background="none" math="0" shadow="0"><root><mxCell id="0"/><mxCell id="1" parent="0"/><mxCell id="78961159f06e98e8-17" value="Render" style="swimlane;html=1;fontStyle=1;align=center;verticalAlign=top;childLayout=stackLayout;horizontal=1;startSize=26;horizontalStack=0;resizeParent=1;resizeLast=0;collapsible=1;marginBottom=0;swimlaneFillColor=#ffffff;rounded=0;shadow=0;comic=0;labelBackgroundColor=none;strokeWidth=1;fillColor=#f0a30a;fontFamily=Verdana;fontSize=12;strokeColor=#BD7000;fontColor=#000000;" parent="1" vertex="1"><mxGeometry x="530" y="-840" width="160" height="100" as="geometry"/></mxCell><mxCell id="78961159f06e98e8-19" value="" style="line;html=1;strokeWidth=1;fillColor=#f0a30a;align=left;verticalAlign=middle;spacingTop=-1;spacingLeft=3;spacingRight=3;rotatable=0;labelPosition=right;points=[];portConstraint=eastwest;strokeColor=#BD7000;fontColor=#000000;shadow=0;" parent="78961159f06e98e8-17" vertex="1"><mxGeometry y="26" width="160" height="8" as="geometry"/></mxCell><mxCell id="78961159f06e98e8-20" value="+ update() void" style="text;html=1;strokeColor=#BD7000;fillColor=#f0a30a;align=left;verticalAlign=top;spacingLeft=4;spacingRight=4;whiteSpace=wrap;overflow=hidden;rotatable=0;points=[[0,0.5],[1,0.5]];portConstraint=eastwest;fontColor=#000000;shadow=0;" parent="78961159f06e98e8-17" vertex="1"><mxGeometry y="34" width="160" height="26" as="geometry"/></mxCell><mxCell id="78961159f06e98e8-27" value="+ render(Screen) void" style="text;html=1;strokeColor=#BD7000;fillColor=#f0a30a;align=left;verticalAlign=top;spacingLeft=4;spacingRight=4;whiteSpace=wrap;overflow=hidden;rotatable=0;points=[[0,0.5],[1,0.5]];portConstraint=eastwest;fontColor=#000000;shadow=0;" parent="78961159f06e98e8-17" vertex="1"><mxGeometry y="60" width="160" height="26" as="geometry"/></mxCell><mxCell id="NYrXTHvHU7heu8sLdSl8-7" style="edgeStyle=orthogonalEdgeStyle;rounded=0;orthogonalLoop=1;jettySize=auto;html=1;entryX=0.5;entryY=1;entryDx=0;entryDy=0;fillColor=#f0a30a;strokeColor=#BD7000;shadow=0;" parent="1" source="78961159f06e98e8-30" target="78961159f06e98e8-17" edge="1"><mxGeometry relative="1" as="geometry"/></mxCell><mxCell id="78961159f06e98e8-30" value="Entity" style="swimlane;html=1;fontStyle=1;align=center;verticalAlign=top;childLayout=stackLayout;horizontal=1;startSize=26;horizontalStack=0;resizeParent=1;resizeLast=0;collapsible=1;marginBottom=0;swimlaneFillColor=#ffffff;rounded=0;shadow=0;comic=0;labelBackgroundColor=none;strokeWidth=1;fillColor=#f0a30a;fontFamily=Verdana;fontSize=12;strokeColor=#BD7000;fontColor=#000000;" parent="1" vertex="1"><mxGeometry x="530" y="-690" width="160" height="390" as="geometry"/></mxCell><mxCell id="78961159f06e98e8-31" value="+ double _x" style="text;html=1;strokeColor=#BD7000;fillColor=#f0a30a;align=left;verticalAlign=top;spacingLeft=4;spacingRight=4;whiteSpace=wrap;overflow=hidden;rotatable=0;points=[[0,0.5],[1,0.5]];portConstraint=eastwest;fontColor=#000000;shadow=0;" parent="78961159f06e98e8-30" vertex="1"><mxGeometry y="26" width="160" height="26" as="geometry"/></mxCell><mxCell id="78961159f06e98e8-32" value="+ double _y" style="text;html=1;strokeColor=#BD7000;fillColor=#f0a30a;align=left;verticalAlign=top;spacingLeft=4;spacingRight=4;whiteSpace=wrap;overflow=hidden;rotatable=0;points=[[0,0.5],[1,0.5]];portConstraint=eastwest;fontColor=#000000;shadow=0;" parent="78961159f06e98e8-30" vertex="1"><mxGeometry y="52" width="160" height="26" as="geometry"/></mxCell><mxCell id="78961159f06e98e8-33" value="+&amp;nbsp; boolean _removed" style="text;html=1;strokeColor=#BD7000;fillColor=#f0a30a;align=left;verticalAlign=top;spacingLeft=4;spacingRight=4;whiteSpace=wrap;overflow=hidden;rotatable=0;points=[[0,0.5],[1,0.5]];portConstraint=eastwest;fontColor=#000000;shadow=0;" parent="78961159f06e98e8-30" vertex="1"><mxGeometry y="78" width="160" height="26" as="geometry"/></mxCell><mxCell id="78961159f06e98e8-34" value="+&amp;nbsp; Sprite _sprite" style="text;html=1;strokeColor=#BD7000;fillColor=#f0a30a;align=left;verticalAlign=top;spacingLeft=4;spacingRight=4;whiteSpace=wrap;overflow=hidden;rotatable=0;points=[[0,0.5],[1,0.5]];portConstraint=eastwest;fontColor=#000000;shadow=0;" parent="78961159f06e98e8-30" vertex="1"><mxGeometry y="104" width="160" height="26" as="geometry"/></mxCell><mxCell id="78961159f06e98e8-38" value="" style="line;html=1;strokeWidth=1;fillColor=#f0a30a;align=left;verticalAlign=middle;spacingTop=-1;spacingLeft=3;spacingRight=3;rotatable=0;labelPosition=right;points=[];portConstraint=eastwest;strokeColor=#BD7000;fontColor=#000000;shadow=0;" parent="78961159f06e98e8-30" vertex="1"><mxGeometry y="130" width="160" height="8" as="geometry"/></mxCell><mxCell id="78961159f06e98e8-39" value="+ update() void" style="text;html=1;strokeColor=#BD7000;fillColor=#f0a30a;align=left;verticalAlign=top;spacingLeft=4;spacingRight=4;whiteSpace=wrap;overflow=hidden;rotatable=0;points=[[0,0.5],[1,0.5]];portConstraint=eastwest;fontColor=#000000;shadow=0;" parent="78961159f06e98e8-30" vertex="1"><mxGeometry y="138" width="160" height="26" as="geometry"/></mxCell><mxCell id="78961159f06e98e8-40" value="+ render(Screen) void" style="text;html=1;strokeColor=#BD7000;fillColor=#f0a30a;align=left;verticalAlign=top;spacingLeft=4;spacingRight=4;whiteSpace=wrap;overflow=hidden;rotatable=0;points=[[0,0.5],[1,0.5]];portConstraint=eastwest;fontColor=#000000;shadow=0;" parent="78961159f06e98e8-30" vertex="1"><mxGeometry y="164" width="160" height="26" as="geometry"/></mxCell><mxCell id="78961159f06e98e8-42" value="+ collide(Entity) boolean&amp;nbsp;" style="text;html=1;strokeColor=#BD7000;fillColor=#f0a30a;align=left;verticalAlign=top;spacingLeft=4;spacingRight=4;whiteSpace=wrap;overflow=hidden;rotatable=0;points=[[0,0.5],[1,0.5]];portConstraint=eastwest;fontColor=#000000;shadow=0;" parent="78961159f06e98e8-30" vertex="1"><mxGeometry y="190" width="160" height="26" as="geometry"/></mxCell><mxCell id="NYrXTHvHU7heu8sLdSl8-3" value="+ remove() boolean" style="text;html=1;strokeColor=#BD7000;fillColor=#f0a30a;align=left;verticalAlign=top;spacingLeft=4;spacingRight=4;whiteSpace=wrap;overflow=hidden;rotatable=0;points=[[0,0.5],[1,0.5]];portConstraint=eastwest;fontColor=#000000;shadow=0;" parent="78961159f06e98e8-30" vertex="1"><mxGeometry y="216" width="160" height="26" as="geometry"/></mxCell><mxCell id="NYrXTHvHU7heu8sLdSl8-4" value="+ isRemoved() boolean" style="text;html=1;strokeColor=#BD7000;fillColor=#f0a30a;align=left;verticalAlign=top;spacingLeft=4;spacingRight=4;whiteSpace=wrap;overflow=hidden;rotatable=0;points=[[0,0.5],[1,0.5]];portConstraint=eastwest;fontColor=#000000;shadow=0;" parent="78961159f06e98e8-30" vertex="1"><mxGeometry y="242" width="160" height="26" as="geometry"/></mxCell><mxCell id="NYrXTHvHU7heu8sLdSl8-8" value="+ getX() double" style="text;html=1;strokeColor=#BD7000;fillColor=#f0a30a;align=left;verticalAlign=top;spacingLeft=4;spacingRight=4;whiteSpace=wrap;overflow=hidden;rotatable=0;points=[[0,0.5],[1,0.5]];portConstraint=eastwest;fontColor=#000000;shadow=0;" parent="78961159f06e98e8-30" vertex="1"><mxGeometry y="268" width="160" height="26" as="geometry"/></mxCell><mxCell id="NYrXTHvHU7heu8sLdSl8-10" value="+ getY() double" style="text;html=1;strokeColor=#BD7000;fillColor=#f0a30a;align=left;verticalAlign=top;spacingLeft=4;spacingRight=4;whiteSpace=wrap;overflow=hidden;rotatable=0;points=[[0,0.5],[1,0.5]];portConstraint=eastwest;fontColor=#000000;shadow=0;" parent="78961159f06e98e8-30" vertex="1"><mxGeometry y="294" width="160" height="26" as="geometry"/></mxCell><mxCell id="NYrXTHvHU7heu8sLdSl8-25" value="+ getYTile() int" style="text;html=1;strokeColor=#BD7000;fillColor=#f0a30a;align=left;verticalAlign=top;spacingLeft=4;spacingRight=4;whiteSpace=wrap;overflow=hidden;rotatable=0;points=[[0,0.5],[1,0.5]];portConstraint=eastwest;fontColor=#000000;shadow=0;" parent="78961159f06e98e8-30" vertex="1"><mxGeometry y="320" width="160" height="26" as="geometry"/></mxCell><mxCell id="NYrXTHvHU7heu8sLdSl8-24" value="+ getXTile() int&amp;nbsp;" style="text;html=1;strokeColor=#BD7000;fillColor=#f0a30a;align=left;verticalAlign=top;spacingLeft=4;spacingRight=4;whiteSpace=wrap;overflow=hidden;rotatable=0;points=[[0,0.5],[1,0.5]];portConstraint=eastwest;fontColor=#000000;shadow=0;" parent="78961159f06e98e8-30" vertex="1"><mxGeometry y="346" width="160" height="26" as="geometry"/></mxCell><mxCell id="NYrXTHvHU7heu8sLdSl8-26" style="edgeStyle=orthogonalEdgeStyle;rounded=0;orthogonalLoop=1;jettySize=auto;html=1;entryX=0.5;entryY=1;entryDx=0;entryDy=0;fillColor=#f0a30a;strokeColor=#BD7000;shadow=0;" parent="1" source="78961159f06e98e8-43" target="78961159f06e98e8-30" edge="1"><mxGeometry relative="1" as="geometry"/></mxCell><mxCell id="78961159f06e98e8-43" value="Animation" style="swimlane;html=1;fontStyle=1;align=center;verticalAlign=top;childLayout=stackLayout;horizontal=1;startSize=26;horizontalStack=0;resizeParent=1;resizeLast=0;collapsible=1;marginBottom=0;swimlaneFillColor=#ffffff;rounded=0;shadow=0;comic=0;labelBackgroundColor=none;strokeWidth=1;fillColor=#f0a30a;fontFamily=Verdana;fontSize=12;strokeColor=#BD7000;fontColor=#000000;" parent="1" vertex="1"><mxGeometry x="295" y="50" width="160" height="120" as="geometry"/></mxCell><mxCell id="78961159f06e98e8-44" value="+ _animate int" style="text;html=1;strokeColor=#BD7000;fillColor=#f0a30a;align=left;verticalAlign=top;spacingLeft=4;spacingRight=4;whiteSpace=wrap;overflow=hidden;rotatable=0;points=[[0,0.5],[1,0.5]];portConstraint=eastwest;fontColor=#000000;shadow=0;" parent="78961159f06e98e8-43" vertex="1"><mxGeometry y="26" width="160" height="26" as="geometry"/></mxCell><mxCell id="78961159f06e98e8-50" value="+ MAX_ANIMATE int" style="text;html=1;strokeColor=#BD7000;fillColor=#f0a30a;align=left;verticalAlign=top;spacingLeft=4;spacingRight=4;whiteSpace=wrap;overflow=hidden;rotatable=0;points=[[0,0.5],[1,0.5]];portConstraint=eastwest;fontColor=#000000;shadow=0;" parent="78961159f06e98e8-43" vertex="1"><mxGeometry y="52" width="160" height="26" as="geometry"/></mxCell><mxCell id="78961159f06e98e8-51" value="" style="line;html=1;strokeWidth=1;fillColor=#f0a30a;align=left;verticalAlign=middle;spacingTop=-1;spacingLeft=3;spacingRight=3;rotatable=0;labelPosition=right;points=[];portConstraint=eastwest;strokeColor=#BD7000;fontColor=#000000;shadow=0;" parent="78961159f06e98e8-43" vertex="1"><mxGeometry y="78" width="160" height="8" as="geometry"/></mxCell><mxCell id="78961159f06e98e8-53" value="+ animate() void" style="text;html=1;strokeColor=#BD7000;fillColor=#f0a30a;align=left;verticalAlign=top;spacingLeft=4;spacingRight=4;whiteSpace=wrap;overflow=hidden;rotatable=0;points=[[0,0.5],[1,0.5]];portConstraint=eastwest;fontColor=#000000;shadow=0;" parent="78961159f06e98e8-43" vertex="1"><mxGeometry y="86" width="160" height="26" as="geometry"/></mxCell><mxCell id="NYrXTHvHU7heu8sLdSl8-57" style="edgeStyle=orthogonalEdgeStyle;rounded=0;orthogonalLoop=1;jettySize=auto;html=1;exitX=0.5;exitY=0;exitDx=0;exitDy=0;fillColor=#f0a30a;strokeColor=#BD7000;shadow=0;" parent="1" source="78961159f06e98e8-56" edge="1"><mxGeometry relative="1" as="geometry"><mxPoint x="580" y="-300" as="targetPoint"/></mxGeometry></mxCell><mxCell id="78961159f06e98e8-56" value="StandObjects" style="swimlane;html=1;fontStyle=1;align=center;verticalAlign=top;childLayout=stackLayout;horizontal=1;startSize=26;horizontalStack=0;resizeParent=1;resizeLast=0;collapsible=1;marginBottom=0;swimlaneFillColor=#ffffff;rounded=0;shadow=0;comic=0;labelBackgroundColor=none;strokeWidth=1;fillColor=#f0a30a;fontFamily=Verdana;fontSize=12;strokeColor=#BD7000;fontColor=#000000;" parent="1" vertex="1"><mxGeometry x="1190" y="-155" width="190" height="195" as="geometry"/></mxCell><mxCell id="78961159f06e98e8-64" value="" style="line;html=1;strokeWidth=1;fillColor=#f0a30a;align=left;verticalAlign=middle;spacingTop=-1;spacingLeft=3;spacingRight=3;rotatable=0;labelPosition=right;points=[];portConstraint=eastwest;strokeColor=#BD7000;fontColor=#000000;shadow=0;" parent="78961159f06e98e8-56" vertex="1"><mxGeometry y="26" width="190" height="8" as="geometry"/></mxCell><mxCell id="NYrXTHvHU7heu8sLdSl8-58" value="+ StandObjects( int , int, Sprite)" style="text;html=1;strokeColor=#BD7000;fillColor=#f0a30a;align=left;verticalAlign=top;spacingLeft=4;spacingRight=4;whiteSpace=wrap;overflow=hidden;rotatable=0;points=[[0,0.5],[1,0.5]];portConstraint=eastwest;fontColor=#000000;shadow=0;" parent="78961159f06e98e8-56" vertex="1"><mxGeometry y="34" width="190" height="26" as="geometry"/></mxCell><mxCell id="78961159f06e98e8-66" value="+ render(Screen) void" style="text;html=1;strokeColor=#BD7000;fillColor=#f0a30a;align=left;verticalAlign=top;spacingLeft=4;spacingRight=4;whiteSpace=wrap;overflow=hidden;rotatable=0;points=[[0,0.5],[1,0.5]];portConstraint=eastwest;fontColor=#000000;shadow=0;" parent="78961159f06e98e8-56" vertex="1"><mxGeometry y="60" width="190" height="26" as="geometry"/></mxCell><mxCell id="78961159f06e98e8-65" value="+ update() void" style="text;html=1;strokeColor=#BD7000;fillColor=#f0a30a;align=left;verticalAlign=top;spacingLeft=4;spacingRight=4;whiteSpace=wrap;overflow=hidden;rotatable=0;points=[[0,0.5],[1,0.5]];portConstraint=eastwest;fontColor=#000000;shadow=0;" parent="78961159f06e98e8-56" vertex="1"><mxGeometry y="86" width="190" height="26" as="geometry"/></mxCell><mxCell id="78961159f06e98e8-68" value="+ collide(Entity) boolean" style="text;html=1;strokeColor=#BD7000;fillColor=#f0a30a;align=left;verticalAlign=top;spacingLeft=4;spacingRight=4;whiteSpace=wrap;overflow=hidden;rotatable=0;points=[[0,0.5],[1,0.5]];portConstraint=eastwest;fontColor=#000000;shadow=0;" parent="78961159f06e98e8-56" vertex="1"><mxGeometry y="112" width="190" height="26" as="geometry"/></mxCell><mxCell id="NYrXTHvHU7heu8sLdSl8-253" style="edgeStyle=orthogonalEdgeStyle;rounded=0;orthogonalLoop=1;jettySize=auto;html=1;fillColor=#f0a30a;strokeColor=#BD7000;shadow=0;" parent="1" source="78961159f06e98e8-69" target="78961159f06e98e8-43" edge="1"><mxGeometry relative="1" as="geometry"/></mxCell><mxCell id="78961159f06e98e8-69" value="Characters" style="swimlane;html=1;fontStyle=1;align=center;verticalAlign=top;childLayout=stackLayout;horizontal=1;startSize=26;horizontalStack=0;resizeParent=1;resizeLast=0;collapsible=1;marginBottom=0;swimlaneFillColor=#ffffff;rounded=0;shadow=0;comic=0;labelBackgroundColor=none;strokeWidth=1;fillColor=#f0a30a;fontFamily=Verdana;fontSize=12;strokeColor=#BD7000;fontColor=#000000;" parent="1" vertex="1"><mxGeometry x="350" y="290" width="190" height="398" as="geometry"/></mxCell><mxCell id="78961159f06e98e8-70" value="+ _Game_board GameBoard" style="text;html=1;strokeColor=#BD7000;fillColor=#f0a30a;align=left;verticalAlign=top;spacingLeft=4;spacingRight=4;whiteSpace=wrap;overflow=hidden;rotatable=0;points=[[0,0.5],[1,0.5]];portConstraint=eastwest;fontColor=#000000;shadow=0;" parent="78961159f06e98e8-69" vertex="1"><mxGeometry y="26" width="190" height="26" as="geometry"/></mxCell><mxCell id="78961159f06e98e8-71" value="+ _direction int" style="text;html=1;strokeColor=#BD7000;fillColor=#f0a30a;align=left;verticalAlign=top;spacingLeft=4;spacingRight=4;whiteSpace=wrap;overflow=hidden;rotatable=0;points=[[0,0.5],[1,0.5]];portConstraint=eastwest;fontColor=#000000;shadow=0;" parent="78961159f06e98e8-69" vertex="1"><mxGeometry y="52" width="190" height="26" as="geometry"/></mxCell><mxCell id="78961159f06e98e8-72" value="+ _alive boolean" style="text;html=1;strokeColor=#BD7000;fillColor=#f0a30a;align=left;verticalAlign=top;spacingLeft=4;spacingRight=4;whiteSpace=wrap;overflow=hidden;rotatable=0;points=[[0,0.5],[1,0.5]];portConstraint=eastwest;fontColor=#000000;shadow=0;" parent="78961159f06e98e8-69" vertex="1"><mxGeometry y="78" width="190" height="26" as="geometry"/></mxCell><mxCell id="78961159f06e98e8-74" value="+ _moving boolean" style="text;html=1;strokeColor=#BD7000;fillColor=#f0a30a;align=left;verticalAlign=top;spacingLeft=4;spacingRight=4;whiteSpace=wrap;overflow=hidden;rotatable=0;points=[[0,0.5],[1,0.5]];portConstraint=eastwest;fontColor=#000000;shadow=0;" parent="78961159f06e98e8-69" vertex="1"><mxGeometry y="104" width="190" height="26" as="geometry"/></mxCell><mxCell id="78961159f06e98e8-75" value="+ _timAfter int" style="text;html=1;strokeColor=#BD7000;fillColor=#f0a30a;align=left;verticalAlign=top;spacingLeft=4;spacingRight=4;whiteSpace=wrap;overflow=hidden;rotatable=0;points=[[0,0.5],[1,0.5]];portConstraint=eastwest;fontColor=#000000;shadow=0;" parent="78961159f06e98e8-69" vertex="1"><mxGeometry y="130" width="190" height="26" as="geometry"/></mxCell><mxCell id="78961159f06e98e8-77" value="" style="line;html=1;strokeWidth=1;fillColor=#f0a30a;align=left;verticalAlign=middle;spacingTop=-1;spacingLeft=3;spacingRight=3;rotatable=0;labelPosition=right;points=[];portConstraint=eastwest;strokeColor=#BD7000;fontColor=#000000;shadow=0;" parent="78961159f06e98e8-69" vertex="1"><mxGeometry y="156" width="190" height="8" as="geometry"/></mxCell><mxCell id="78961159f06e98e8-78" value="+ update() void" style="text;html=1;strokeColor=#BD7000;fillColor=#f0a30a;align=left;verticalAlign=top;spacingLeft=4;spacingRight=4;whiteSpace=wrap;overflow=hidden;rotatable=0;points=[[0,0.5],[1,0.5]];portConstraint=eastwest;fontColor=#000000;shadow=0;" parent="78961159f06e98e8-69" vertex="1"><mxGeometry y="164" width="190" height="26" as="geometry"/></mxCell><mxCell id="78961159f06e98e8-79" value="+ render( Screen) void" style="text;html=1;strokeColor=#BD7000;fillColor=#f0a30a;align=left;verticalAlign=top;spacingLeft=4;spacingRight=4;whiteSpace=wrap;overflow=hidden;rotatable=0;points=[[0,0.5],[1,0.5]];portConstraint=eastwest;fontColor=#000000;shadow=0;" parent="78961159f06e98e8-69" vertex="1"><mxGeometry y="190" width="190" height="26" as="geometry"/></mxCell><mxCell id="78961159f06e98e8-80" value="+ calculateMove() void" style="text;html=1;strokeColor=#BD7000;fillColor=#f0a30a;align=left;verticalAlign=top;spacingLeft=4;spacingRight=4;whiteSpace=wrap;overflow=hidden;rotatable=0;points=[[0,0.5],[1,0.5]];portConstraint=eastwest;fontColor=#000000;shadow=0;" parent="78961159f06e98e8-69" vertex="1"><mxGeometry y="216" width="190" height="26" as="geometry"/></mxCell><mxCell id="78961159f06e98e8-81" value="+ move() void&amp;nbsp;" style="text;html=1;strokeColor=#BD7000;fillColor=#f0a30a;align=left;verticalAlign=top;spacingLeft=4;spacingRight=4;whiteSpace=wrap;overflow=hidden;rotatable=0;points=[[0,0.5],[1,0.5]];portConstraint=eastwest;fontColor=#000000;shadow=0;" parent="78961159f06e98e8-69" vertex="1"><mxGeometry y="242" width="190" height="26" as="geometry"/></mxCell><mxCell id="NYrXTHvHU7heu8sLdSl8-133" value="+ canMove()&amp;nbsp; boolean" style="text;html=1;strokeColor=#BD7000;fillColor=#f0a30a;align=left;verticalAlign=top;spacingLeft=4;spacingRight=4;whiteSpace=wrap;overflow=hidden;rotatable=0;points=[[0,0.5],[1,0.5]];portConstraint=eastwest;fontColor=#000000;shadow=0;" parent="78961159f06e98e8-69" vertex="1"><mxGeometry y="268" width="190" height="26" as="geometry"/></mxCell><mxCell id="NYrXTHvHU7heu8sLdSl8-134" value="+ kill() void" style="text;html=1;strokeColor=#BD7000;fillColor=#f0a30a;align=left;verticalAlign=top;spacingLeft=4;spacingRight=4;whiteSpace=wrap;overflow=hidden;rotatable=0;points=[[0,0.5],[1,0.5]];portConstraint=eastwest;fontColor=#000000;shadow=0;" parent="78961159f06e98e8-69" vertex="1"><mxGeometry y="294" width="190" height="26" as="geometry"/></mxCell><mxCell id="NYrXTHvHU7heu8sLdSl8-135" value="+ afterKill() void" style="text;html=1;strokeColor=#BD7000;fillColor=#f0a30a;align=left;verticalAlign=top;spacingLeft=4;spacingRight=4;whiteSpace=wrap;overflow=hidden;rotatable=0;points=[[0,0.5],[1,0.5]];portConstraint=eastwest;fontColor=#000000;shadow=0;" parent="78961159f06e98e8-69" vertex="1"><mxGeometry y="320" width="190" height="26" as="geometry"/></mxCell><mxCell id="NYrXTHvHU7heu8sLdSl8-136" value="+ getXMessage() double" style="text;html=1;strokeColor=#BD7000;fillColor=#f0a30a;align=left;verticalAlign=top;spacingLeft=4;spacingRight=4;whiteSpace=wrap;overflow=hidden;rotatable=0;points=[[0,0.5],[1,0.5]];portConstraint=eastwest;fontColor=#000000;shadow=0;" parent="78961159f06e98e8-69" vertex="1"><mxGeometry y="346" width="190" height="26" as="geometry"/></mxCell><mxCell id="NYrXTHvHU7heu8sLdSl8-152" value="+ getYMessage() double" style="text;html=1;strokeColor=#BD7000;fillColor=#f0a30a;align=left;verticalAlign=top;spacingLeft=4;spacingRight=4;whiteSpace=wrap;overflow=hidden;rotatable=0;points=[[0,0.5],[1,0.5]];portConstraint=eastwest;fontColor=#000000;shadow=0;" parent="78961159f06e98e8-69" vertex="1"><mxGeometry y="372" width="190" height="26" as="geometry"/></mxCell><mxCell id="NYrXTHvHU7heu8sLdSl8-79" style="edgeStyle=orthogonalEdgeStyle;rounded=0;orthogonalLoop=1;jettySize=auto;html=1;exitX=0.5;exitY=0;exitDx=0;exitDy=0;fillColor=#f0a30a;strokeColor=#BD7000;shadow=0;" parent="1" source="78961159f06e98e8-108" edge="1"><mxGeometry relative="1" as="geometry"><mxPoint x="1310" y="40" as="targetPoint"/></mxGeometry></mxCell><mxCell id="78961159f06e98e8-108" value="Item" style="swimlane;html=1;fontStyle=1;align=center;verticalAlign=top;childLayout=stackLayout;horizontal=1;startSize=26;horizontalStack=0;resizeParent=1;resizeLast=0;collapsible=1;marginBottom=0;swimlaneFillColor=#ffffff;rounded=0;shadow=0;comic=0;labelBackgroundColor=none;strokeWidth=1;fillColor=#f0a30a;fontFamily=Verdana;fontSize=12;strokeColor=#BD7000;fontColor=#000000;" parent="1" vertex="1"><mxGeometry x="1330" y="120" width="160" height="90" as="geometry"/></mxCell><mxCell id="78961159f06e98e8-116" value="" style="line;html=1;strokeWidth=1;fillColor=#f0a30a;align=left;verticalAlign=middle;spacingTop=-1;spacingLeft=3;spacingRight=3;rotatable=0;labelPosition=right;points=[];portConstraint=eastwest;strokeColor=#BD7000;fontColor=#000000;shadow=0;" parent="78961159f06e98e8-108" vertex="1"><mxGeometry y="26" width="160" height="8" as="geometry"/></mxCell><mxCell id="78961159f06e98e8-117" value="+ Item (int, int, Sprite)" style="text;html=1;strokeColor=#BD7000;fillColor=#f0a30a;align=left;verticalAlign=top;spacingLeft=4;spacingRight=4;whiteSpace=wrap;overflow=hidden;rotatable=0;points=[[0,0.5],[1,0.5]];portConstraint=eastwest;fontColor=#000000;shadow=0;" parent="78961159f06e98e8-108" vertex="1"><mxGeometry y="34" width="160" height="26" as="geometry"/></mxCell><mxCell id="NYrXTHvHU7heu8sLdSl8-87" value="+ remove()" style="text;html=1;strokeColor=#BD7000;fillColor=#f0a30a;align=left;verticalAlign=top;spacingLeft=4;spacingRight=4;whiteSpace=wrap;overflow=hidden;rotatable=0;points=[[0,0.5],[1,0.5]];portConstraint=eastwest;fontColor=#000000;shadow=0;" parent="78961159f06e98e8-108" vertex="1"><mxGeometry y="60" width="160" height="26" as="geometry"/></mxCell><mxCell id="NYrXTHvHU7heu8sLdSl8-34" style="edgeStyle=orthogonalEdgeStyle;rounded=0;orthogonalLoop=1;jettySize=auto;html=1;exitX=0.5;exitY=0;exitDx=0;exitDy=0;fillColor=#f0a30a;strokeColor=#BD7000;shadow=0;" parent="1" source="NYrXTHvHU7heu8sLdSl8-27" edge="1"><mxGeometry relative="1" as="geometry"><mxPoint x="560" y="-300" as="targetPoint"/></mxGeometry></mxCell><mxCell id="NYrXTHvHU7heu8sLdSl8-27" value="LayerEntity" style="swimlane;html=1;fontStyle=1;align=center;verticalAlign=top;childLayout=stackLayout;horizontal=1;startSize=26;horizontalStack=0;resizeParent=1;resizeLast=0;collapsible=1;marginBottom=0;swimlaneFillColor=#ffffff;rounded=0;shadow=0;comic=0;labelBackgroundColor=none;strokeWidth=1;fillColor=#f0a30a;fontFamily=Verdana;fontSize=12;strokeColor=#BD7000;fontColor=#000000;" parent="1" vertex="1"><mxGeometry x="240" y="-230" width="170" height="220" as="geometry"/></mxCell><mxCell id="NYrXTHvHU7heu8sLdSl8-28" value="+ _entities LinkesList&amp;lt;Entity&amp;gt;" style="text;html=1;strokeColor=#BD7000;fillColor=#f0a30a;align=left;verticalAlign=top;spacingLeft=4;spacingRight=4;whiteSpace=wrap;overflow=hidden;rotatable=0;points=[[0,0.5],[1,0.5]];portConstraint=eastwest;fontColor=#000000;shadow=0;" parent="NYrXTHvHU7heu8sLdSl8-27" vertex="1"><mxGeometry y="26" width="170" height="26" as="geometry"/></mxCell><mxCell id="NYrXTHvHU7heu8sLdSl8-30" value="" style="line;html=1;strokeWidth=1;fillColor=#f0a30a;align=left;verticalAlign=middle;spacingTop=-1;spacingLeft=3;spacingRight=3;rotatable=0;labelPosition=right;points=[];portConstraint=eastwest;strokeColor=#BD7000;fontColor=#000000;shadow=0;" parent="NYrXTHvHU7heu8sLdSl8-27" vertex="1"><mxGeometry y="52" width="170" height="8" as="geometry"/></mxCell><mxCell id="NYrXTHvHU7heu8sLdSl8-31" value="+ :LayerEntity(int, int, Entity)" style="text;html=1;strokeColor=#BD7000;fillColor=#f0a30a;align=left;verticalAlign=top;spacingLeft=4;spacingRight=4;whiteSpace=wrap;overflow=hidden;rotatable=0;points=[[0,0.5],[1,0.5]];portConstraint=eastwest;fontColor=#000000;shadow=0;" parent="NYrXTHvHU7heu8sLdSl8-27" vertex="1"><mxGeometry y="60" width="170" height="26" as="geometry"/></mxCell><mxCell id="NYrXTHvHU7heu8sLdSl8-35" value="+ render(Screen) void" style="text;html=1;strokeColor=#BD7000;fillColor=#f0a30a;align=left;verticalAlign=top;spacingLeft=4;spacingRight=4;whiteSpace=wrap;overflow=hidden;rotatable=0;points=[[0,0.5],[1,0.5]];portConstraint=eastwest;fontColor=#000000;shadow=0;" parent="NYrXTHvHU7heu8sLdSl8-27" vertex="1"><mxGeometry y="86" width="170" height="26" as="geometry"/></mxCell><mxCell id="NYrXTHvHU7heu8sLdSl8-36" value="+ update() void" style="text;html=1;strokeColor=#BD7000;fillColor=#f0a30a;align=left;verticalAlign=top;spacingLeft=4;spacingRight=4;whiteSpace=wrap;overflow=hidden;rotatable=0;points=[[0,0.5],[1,0.5]];portConstraint=eastwest;fontColor=#000000;shadow=0;" parent="NYrXTHvHU7heu8sLdSl8-27" vertex="1"><mxGeometry y="112" width="170" height="26" as="geometry"/></mxCell><mxCell id="NYrXTHvHU7heu8sLdSl8-37" value="+ getTopEntity() Entity" style="text;html=1;strokeColor=#BD7000;fillColor=#f0a30a;align=left;verticalAlign=top;spacingLeft=4;spacingRight=4;whiteSpace=wrap;overflow=hidden;rotatable=0;points=[[0,0.5],[1,0.5]];portConstraint=eastwest;fontColor=#000000;shadow=0;" parent="NYrXTHvHU7heu8sLdSl8-27" vertex="1"><mxGeometry y="138" width="170" height="26" as="geometry"/></mxCell><mxCell id="NYrXTHvHU7heu8sLdSl8-38" value="+ clearRemoved() void" style="text;html=1;strokeColor=#BD7000;fillColor=#f0a30a;align=left;verticalAlign=top;spacingLeft=4;spacingRight=4;whiteSpace=wrap;overflow=hidden;rotatable=0;points=[[0,0.5],[1,0.5]];portConstraint=eastwest;fontColor=#000000;shadow=0;" parent="NYrXTHvHU7heu8sLdSl8-27" vertex="1"><mxGeometry y="164" width="170" height="26" as="geometry"/></mxCell><mxCell id="NYrXTHvHU7heu8sLdSl8-39" value="+ colllide(Entity) boolean" style="text;html=1;strokeColor=#BD7000;fillColor=#f0a30a;align=left;verticalAlign=top;spacingLeft=4;spacingRight=4;whiteSpace=wrap;overflow=hidden;rotatable=0;points=[[0,0.5],[1,0.5]];portConstraint=eastwest;fontColor=#000000;shadow=0;" parent="NYrXTHvHU7heu8sLdSl8-27" vertex="1"><mxGeometry y="190" width="170" height="26" as="geometry"/></mxCell><mxCell id="NYrXTHvHU7heu8sLdSl8-49" style="edgeStyle=orthogonalEdgeStyle;rounded=0;orthogonalLoop=1;jettySize=auto;html=1;entryX=0.75;entryY=1;entryDx=0;entryDy=0;exitX=0.5;exitY=0;exitDx=0;exitDy=0;fillColor=#f0a30a;strokeColor=#BD7000;shadow=0;" parent="1" source="NYrXTHvHU7heu8sLdSl8-40" target="78961159f06e98e8-30" edge="1"><mxGeometry relative="1" as="geometry"/></mxCell><mxCell id="NYrXTHvHU7heu8sLdSl8-40" value="Nortification" style="swimlane;html=1;fontStyle=1;align=center;verticalAlign=top;childLayout=stackLayout;horizontal=1;startSize=26;horizontalStack=0;resizeParent=1;resizeLast=0;collapsible=1;marginBottom=0;swimlaneFillColor=#ffffff;rounded=0;shadow=0;comic=0;labelBackgroundColor=none;strokeWidth=1;fillColor=#f0a30a;fontFamily=Verdana;fontSize=12;strokeColor=#BD7000;fontColor=#000000;" parent="1" vertex="1"><mxGeometry x="620" y="-120" width="290" height="380" as="geometry"/></mxCell><mxCell id="NYrXTHvHU7heu8sLdSl8-41" value="+ _message String" style="text;html=1;strokeColor=#BD7000;fillColor=#f0a30a;align=left;verticalAlign=top;spacingLeft=4;spacingRight=4;whiteSpace=wrap;overflow=hidden;rotatable=0;points=[[0,0.5],[1,0.5]];portConstraint=eastwest;fontColor=#000000;shadow=0;" parent="NYrXTHvHU7heu8sLdSl8-40" vertex="1"><mxGeometry y="26" width="290" height="26" as="geometry"/></mxCell><mxCell id="NYrXTHvHU7heu8sLdSl8-50" value="+ _duration int" style="text;html=1;strokeColor=#BD7000;fillColor=#f0a30a;align=left;verticalAlign=top;spacingLeft=4;spacingRight=4;whiteSpace=wrap;overflow=hidden;rotatable=0;points=[[0,0.5],[1,0.5]];portConstraint=eastwest;fontColor=#000000;shadow=0;" parent="NYrXTHvHU7heu8sLdSl8-40" vertex="1"><mxGeometry y="52" width="290" height="26" as="geometry"/></mxCell><mxCell id="NYrXTHvHU7heu8sLdSl8-55" value="+ _size int" style="text;html=1;strokeColor=#BD7000;fillColor=#f0a30a;align=left;verticalAlign=top;spacingLeft=4;spacingRight=4;whiteSpace=wrap;overflow=hidden;rotatable=0;points=[[0,0.5],[1,0.5]];portConstraint=eastwest;fontColor=#000000;shadow=0;" parent="NYrXTHvHU7heu8sLdSl8-40" vertex="1"><mxGeometry y="78" width="290" height="26" as="geometry"/></mxCell><mxCell id="NYrXTHvHU7heu8sLdSl8-54" value="+ _color Color" style="text;html=1;strokeColor=#BD7000;fillColor=#f0a30a;align=left;verticalAlign=top;spacingLeft=4;spacingRight=4;whiteSpace=wrap;overflow=hidden;rotatable=0;points=[[0,0.5],[1,0.5]];portConstraint=eastwest;fontColor=#000000;shadow=0;" parent="NYrXTHvHU7heu8sLdSl8-40" vertex="1"><mxGeometry y="104" width="290" height="26" as="geometry"/></mxCell><mxCell id="NYrXTHvHU7heu8sLdSl8-42" value="" style="line;html=1;strokeWidth=1;fillColor=#f0a30a;align=left;verticalAlign=middle;spacingTop=-1;spacingLeft=3;spacingRight=3;rotatable=0;labelPosition=right;points=[];portConstraint=eastwest;strokeColor=#BD7000;fontColor=#000000;shadow=0;" parent="NYrXTHvHU7heu8sLdSl8-40" vertex="1"><mxGeometry y="130" width="290" height="8" as="geometry"/></mxCell><mxCell id="NYrXTHvHU7heu8sLdSl8-43" value="+ Nortification(String, double, double, int, Color, int)" style="text;html=1;strokeColor=#BD7000;fillColor=#f0a30a;align=left;verticalAlign=top;spacingLeft=4;spacingRight=4;whiteSpace=wrap;overflow=hidden;rotatable=0;points=[[0,0.5],[1,0.5]];portConstraint=eastwest;fontColor=#000000;shadow=0;" parent="NYrXTHvHU7heu8sLdSl8-40" vertex="1"><mxGeometry y="138" width="290" height="26" as="geometry"/></mxCell><mxCell id="NYrXTHvHU7heu8sLdSl8-44" value="+ render(Screen) void" style="text;html=1;strokeColor=#BD7000;fillColor=#f0a30a;align=left;verticalAlign=top;spacingLeft=4;spacingRight=4;whiteSpace=wrap;overflow=hidden;rotatable=0;points=[[0,0.5],[1,0.5]];portConstraint=eastwest;fontColor=#000000;shadow=0;" parent="NYrXTHvHU7heu8sLdSl8-40" vertex="1"><mxGeometry y="164" width="290" height="26" as="geometry"/></mxCell><mxCell id="NYrXTHvHU7heu8sLdSl8-45" value="+ update() void" style="text;html=1;strokeColor=#BD7000;fillColor=#f0a30a;align=left;verticalAlign=top;spacingLeft=4;spacingRight=4;whiteSpace=wrap;overflow=hidden;rotatable=0;points=[[0,0.5],[1,0.5]];portConstraint=eastwest;fontColor=#000000;shadow=0;" parent="NYrXTHvHU7heu8sLdSl8-40" vertex="1"><mxGeometry y="190" width="290" height="26" as="geometry"/></mxCell><mxCell id="NYrXTHvHU7heu8sLdSl8-46" value="+ getDuration() int" style="text;html=1;strokeColor=#BD7000;fillColor=#f0a30a;align=left;verticalAlign=top;spacingLeft=4;spacingRight=4;whiteSpace=wrap;overflow=hidden;rotatable=0;points=[[0,0.5],[1,0.5]];portConstraint=eastwest;fontColor=#000000;shadow=0;" parent="NYrXTHvHU7heu8sLdSl8-40" vertex="1"><mxGeometry y="216" width="290" height="26" as="geometry"/></mxCell><mxCell id="NYrXTHvHU7heu8sLdSl8-47" value="+ setDuration(int) void" style="text;html=1;strokeColor=#BD7000;fillColor=#f0a30a;align=left;verticalAlign=top;spacingLeft=4;spacingRight=4;whiteSpace=wrap;overflow=hidden;rotatable=0;points=[[0,0.5],[1,0.5]];portConstraint=eastwest;fontColor=#000000;shadow=0;" parent="NYrXTHvHU7heu8sLdSl8-40" vertex="1"><mxGeometry y="242" width="290" height="26" as="geometry"/></mxCell><mxCell id="NYrXTHvHU7heu8sLdSl8-48" value="+ colllide(Entity) boolean" style="text;html=1;strokeColor=#BD7000;fillColor=#f0a30a;align=left;verticalAlign=top;spacingLeft=4;spacingRight=4;whiteSpace=wrap;overflow=hidden;rotatable=0;points=[[0,0.5],[1,0.5]];portConstraint=eastwest;fontColor=#000000;shadow=0;" parent="NYrXTHvHU7heu8sLdSl8-40" vertex="1"><mxGeometry y="268" width="290" height="26" as="geometry"/></mxCell><mxCell id="NYrXTHvHU7heu8sLdSl8-51" value="+ getMessage() String" style="text;html=1;strokeColor=#BD7000;fillColor=#f0a30a;align=left;verticalAlign=top;spacingLeft=4;spacingRight=4;whiteSpace=wrap;overflow=hidden;rotatable=0;points=[[0,0.5],[1,0.5]];portConstraint=eastwest;fontColor=#000000;shadow=0;" parent="NYrXTHvHU7heu8sLdSl8-40" vertex="1"><mxGeometry y="294" width="290" height="26" as="geometry"/></mxCell><mxCell id="NYrXTHvHU7heu8sLdSl8-52" value="+ getColor() Color" style="text;html=1;strokeColor=#BD7000;fillColor=#f0a30a;align=left;verticalAlign=top;spacingLeft=4;spacingRight=4;whiteSpace=wrap;overflow=hidden;rotatable=0;points=[[0,0.5],[1,0.5]];portConstraint=eastwest;fontColor=#000000;shadow=0;" parent="NYrXTHvHU7heu8sLdSl8-40" vertex="1"><mxGeometry y="320" width="290" height="26" as="geometry"/></mxCell><mxCell id="NYrXTHvHU7heu8sLdSl8-53" value="+ getSize() int" style="text;html=1;strokeColor=#BD7000;fillColor=#f0a30a;align=left;verticalAlign=top;spacingLeft=4;spacingRight=4;whiteSpace=wrap;overflow=hidden;rotatable=0;points=[[0,0.5],[1,0.5]];portConstraint=eastwest;fontColor=#000000;shadow=0;" parent="NYrXTHvHU7heu8sLdSl8-40" vertex="1"><mxGeometry y="346" width="290" height="26" as="geometry"/></mxCell><mxCell id="NYrXTHvHU7heu8sLdSl8-78" style="edgeStyle=orthogonalEdgeStyle;rounded=0;orthogonalLoop=1;jettySize=auto;html=1;fillColor=#f0a30a;strokeColor=#BD7000;shadow=0;" parent="1" source="NYrXTHvHU7heu8sLdSl8-59" edge="1"><mxGeometry relative="1" as="geometry"><mxPoint x="1280" y="40" as="targetPoint"/></mxGeometry></mxCell><mxCell id="NYrXTHvHU7heu8sLdSl8-59" value="Portal" style="swimlane;html=1;fontStyle=1;align=center;verticalAlign=top;childLayout=stackLayout;horizontal=1;startSize=26;horizontalStack=0;resizeParent=1;resizeLast=0;collapsible=1;marginBottom=0;swimlaneFillColor=#ffffff;rounded=0;shadow=0;comic=0;labelBackgroundColor=none;strokeWidth=1;fillColor=#f0a30a;fontFamily=Verdana;fontSize=12;strokeColor=#BD7000;fontColor=#000000;" parent="1" vertex="1"><mxGeometry x="1160" y="100" width="160" height="100" as="geometry"/></mxCell><mxCell id="NYrXTHvHU7heu8sLdSl8-62" value="" style="line;html=1;strokeWidth=1;fillColor=#f0a30a;align=left;verticalAlign=middle;spacingTop=-1;spacingLeft=3;spacingRight=3;rotatable=0;labelPosition=right;points=[];portConstraint=eastwest;strokeColor=#BD7000;fontColor=#000000;shadow=0;" parent="NYrXTHvHU7heu8sLdSl8-59" vertex="1"><mxGeometry y="26" width="160" height="8" as="geometry"/></mxCell><mxCell id="NYrXTHvHU7heu8sLdSl8-86" value="+ Portal(int, int, Sprite)" style="text;html=1;strokeColor=#BD7000;fillColor=#f0a30a;align=left;verticalAlign=top;spacingLeft=4;spacingRight=4;whiteSpace=wrap;overflow=hidden;rotatable=0;points=[[0,0.5],[1,0.5]];portConstraint=eastwest;fontColor=#000000;shadow=0;" parent="NYrXTHvHU7heu8sLdSl8-59" vertex="1"><mxGeometry y="34" width="160" height="26" as="geometry"/></mxCell><mxCell id="NYrXTHvHU7heu8sLdSl8-95" value="+ collide(Entity) boolean" style="text;html=1;strokeColor=#BD7000;fillColor=#f0a30a;align=left;verticalAlign=top;spacingLeft=4;spacingRight=4;whiteSpace=wrap;overflow=hidden;rotatable=0;points=[[0,0.5],[1,0.5]];portConstraint=eastwest;fontColor=#000000;shadow=0;" parent="NYrXTHvHU7heu8sLdSl8-59" vertex="1"><mxGeometry y="60" width="160" height="26" as="geometry"/></mxCell><mxCell id="NYrXTHvHU7heu8sLdSl8-82" style="edgeStyle=orthogonalEdgeStyle;rounded=0;orthogonalLoop=1;jettySize=auto;html=1;exitX=0.5;exitY=0;exitDx=0;exitDy=0;fillColor=#f0a30a;strokeColor=#BD7000;shadow=0;" parent="1" source="NYrXTHvHU7heu8sLdSl8-65" edge="1"><mxGeometry relative="1" as="geometry"><mxPoint x="1340" y="40" as="targetPoint"/></mxGeometry></mxCell><mxCell id="NYrXTHvHU7heu8sLdSl8-65" value="Wall" style="swimlane;html=1;fontStyle=1;align=center;verticalAlign=top;childLayout=stackLayout;horizontal=1;startSize=26;horizontalStack=0;resizeParent=1;resizeLast=0;collapsible=1;marginBottom=0;swimlaneFillColor=#ffffff;rounded=0;shadow=0;comic=0;labelBackgroundColor=none;strokeWidth=1;fillColor=#f0a30a;fontFamily=Verdana;fontSize=12;strokeColor=#BD7000;fontColor=#000000;" parent="1" vertex="1"><mxGeometry x="1520" y="100" width="160" height="70" as="geometry"/></mxCell><mxCell id="NYrXTHvHU7heu8sLdSl8-68" value="" style="line;html=1;strokeWidth=1;fillColor=#f0a30a;align=left;verticalAlign=middle;spacingTop=-1;spacingLeft=3;spacingRight=3;rotatable=0;labelPosition=right;points=[];portConstraint=eastwest;strokeColor=#BD7000;fontColor=#000000;shadow=0;" parent="NYrXTHvHU7heu8sLdSl8-65" vertex="1"><mxGeometry y="26" width="160" height="8" as="geometry"/></mxCell><mxCell id="NYrXTHvHU7heu8sLdSl8-69" value="+ Wall( int, int ,Sprite)" style="text;html=1;strokeColor=#BD7000;fillColor=#f0a30a;align=left;verticalAlign=top;spacingLeft=4;spacingRight=4;whiteSpace=wrap;overflow=hidden;rotatable=0;points=[[0,0.5],[1,0.5]];portConstraint=eastwest;fontColor=#000000;shadow=0;" parent="NYrXTHvHU7heu8sLdSl8-65" vertex="1"><mxGeometry y="34" width="160" height="26" as="geometry"/></mxCell><mxCell id="NYrXTHvHU7heu8sLdSl8-77" style="edgeStyle=orthogonalEdgeStyle;rounded=0;orthogonalLoop=1;jettySize=auto;html=1;exitX=0.5;exitY=0;exitDx=0;exitDy=0;fillColor=#f0a30a;strokeColor=#BD7000;shadow=0;" parent="1" source="NYrXTHvHU7heu8sLdSl8-71" edge="1"><mxGeometry relative="1" as="geometry"><mxPoint x="1220" y="40" as="targetPoint"/></mxGeometry></mxCell><mxCell id="NYrXTHvHU7heu8sLdSl8-71" value="Grass" style="swimlane;html=1;fontStyle=1;align=center;verticalAlign=top;childLayout=stackLayout;horizontal=1;startSize=26;horizontalStack=0;resizeParent=1;resizeLast=0;collapsible=1;marginBottom=0;swimlaneFillColor=#ffffff;rounded=0;shadow=0;comic=0;labelBackgroundColor=none;strokeWidth=1;fillColor=#f0a30a;fontFamily=Verdana;fontSize=12;strokeColor=#BD7000;fontColor=#000000;" parent="1" vertex="1"><mxGeometry x="980" y="100" width="160" height="100" as="geometry"/></mxCell><mxCell id="NYrXTHvHU7heu8sLdSl8-74" value="" style="line;html=1;strokeWidth=1;fillColor=#f0a30a;align=left;verticalAlign=middle;spacingTop=-1;spacingLeft=3;spacingRight=3;rotatable=0;labelPosition=right;points=[];portConstraint=eastwest;strokeColor=#BD7000;fontColor=#000000;shadow=0;" parent="NYrXTHvHU7heu8sLdSl8-71" vertex="1"><mxGeometry y="26" width="160" height="8" as="geometry"/></mxCell><mxCell id="NYrXTHvHU7heu8sLdSl8-85" value="+ Grass(int ,int , Sprite)" style="text;html=1;strokeColor=#BD7000;fillColor=#f0a30a;align=left;verticalAlign=top;spacingLeft=4;spacingRight=4;whiteSpace=wrap;overflow=hidden;rotatable=0;points=[[0,0.5],[1,0.5]];portConstraint=eastwest;fontColor=#000000;shadow=0;" parent="NYrXTHvHU7heu8sLdSl8-71" vertex="1"><mxGeometry y="34" width="160" height="26" as="geometry"/></mxCell><mxCell id="NYrXTHvHU7heu8sLdSl8-97" value="+ collide(Entity) boolean" style="text;html=1;strokeColor=#BD7000;fillColor=#f0a30a;align=left;verticalAlign=top;spacingLeft=4;spacingRight=4;whiteSpace=wrap;overflow=hidden;rotatable=0;points=[[0,0.5],[1,0.5]];portConstraint=eastwest;fontColor=#000000;shadow=0;" parent="NYrXTHvHU7heu8sLdSl8-71" vertex="1"><mxGeometry y="60" width="160" height="26" as="geometry"/></mxCell><mxCell id="NYrXTHvHU7heu8sLdSl8-112" style="edgeStyle=orthogonalEdgeStyle;rounded=0;orthogonalLoop=1;jettySize=auto;html=1;entryX=0.75;entryY=1;entryDx=0;entryDy=0;exitX=0.5;exitY=0;exitDx=0;exitDy=0;fillColor=#f0a30a;strokeColor=#BD7000;shadow=0;" parent="1" source="NYrXTHvHU7heu8sLdSl8-98" target="78961159f06e98e8-108" edge="1"><mxGeometry relative="1" as="geometry"/></mxCell><mxCell id="NYrXTHvHU7heu8sLdSl8-98" value="FlameItem" style="swimlane;html=1;fontStyle=1;align=center;verticalAlign=top;childLayout=stackLayout;horizontal=1;startSize=26;horizontalStack=0;resizeParent=1;resizeLast=0;collapsible=1;marginBottom=0;swimlaneFillColor=#ffffff;rounded=0;shadow=0;comic=0;labelBackgroundColor=none;strokeWidth=1;fillColor=#f0a30a;fontFamily=Verdana;fontSize=12;strokeColor=#BD7000;fontColor=#000000;" parent="1" vertex="1"><mxGeometry x="1530" y="280" width="160" height="100" as="geometry"/></mxCell><mxCell id="NYrXTHvHU7heu8sLdSl8-99" value="" style="line;html=1;strokeWidth=1;fillColor=#f0a30a;align=left;verticalAlign=middle;spacingTop=-1;spacingLeft=3;spacingRight=3;rotatable=0;labelPosition=right;points=[];portConstraint=eastwest;strokeColor=#BD7000;fontColor=#000000;shadow=0;" parent="NYrXTHvHU7heu8sLdSl8-98" vertex="1"><mxGeometry y="26" width="160" height="8" as="geometry"/></mxCell><mxCell id="NYrXTHvHU7heu8sLdSl8-100" value="+ FlameItem (int, int, Sprite)" style="text;html=1;strokeColor=#BD7000;fillColor=#f0a30a;align=left;verticalAlign=top;spacingLeft=4;spacingRight=4;whiteSpace=wrap;overflow=hidden;rotatable=0;points=[[0,0.5],[1,0.5]];portConstraint=eastwest;fontColor=#000000;shadow=0;" parent="NYrXTHvHU7heu8sLdSl8-98" vertex="1"><mxGeometry y="34" width="160" height="26" as="geometry"/></mxCell><mxCell id="NYrXTHvHU7heu8sLdSl8-101" value="+ collide(Entity) boolean" style="text;html=1;strokeColor=#BD7000;fillColor=#f0a30a;align=left;verticalAlign=top;spacingLeft=4;spacingRight=4;whiteSpace=wrap;overflow=hidden;rotatable=0;points=[[0,0.5],[1,0.5]];portConstraint=eastwest;fontColor=#000000;shadow=0;" parent="NYrXTHvHU7heu8sLdSl8-98" vertex="1"><mxGeometry y="60" width="160" height="26" as="geometry"/></mxCell><mxCell id="NYrXTHvHU7heu8sLdSl8-111" style="edgeStyle=orthogonalEdgeStyle;rounded=0;orthogonalLoop=1;jettySize=auto;html=1;exitX=0.5;exitY=0;exitDx=0;exitDy=0;entryX=0.5;entryY=1;entryDx=0;entryDy=0;fillColor=#f0a30a;strokeColor=#BD7000;shadow=0;" parent="1" source="NYrXTHvHU7heu8sLdSl8-102" target="78961159f06e98e8-108" edge="1"><mxGeometry relative="1" as="geometry"/></mxCell><mxCell id="NYrXTHvHU7heu8sLdSl8-102" value="SpeedItem" style="swimlane;html=1;fontStyle=1;align=center;verticalAlign=top;childLayout=stackLayout;horizontal=1;startSize=26;horizontalStack=0;resizeParent=1;resizeLast=0;collapsible=1;marginBottom=0;swimlaneFillColor=#ffffff;rounded=0;shadow=0;comic=0;labelBackgroundColor=none;strokeWidth=1;fillColor=#f0a30a;fontFamily=Verdana;fontSize=12;strokeColor=#BD7000;fontColor=#000000;" parent="1" vertex="1"><mxGeometry x="1330" y="333" width="160" height="86" as="geometry"/></mxCell><mxCell id="NYrXTHvHU7heu8sLdSl8-103" value="" style="line;html=1;strokeWidth=1;fillColor=#f0a30a;align=left;verticalAlign=middle;spacingTop=-1;spacingLeft=3;spacingRight=3;rotatable=0;labelPosition=right;points=[];portConstraint=eastwest;strokeColor=#BD7000;fontColor=#000000;shadow=0;" parent="NYrXTHvHU7heu8sLdSl8-102" vertex="1"><mxGeometry y="26" width="160" height="8" as="geometry"/></mxCell><mxCell id="NYrXTHvHU7heu8sLdSl8-104" value="+ SpeedItem (int, int, Sprite)" style="text;html=1;strokeColor=#BD7000;fillColor=#f0a30a;align=left;verticalAlign=top;spacingLeft=4;spacingRight=4;whiteSpace=wrap;overflow=hidden;rotatable=0;points=[[0,0.5],[1,0.5]];portConstraint=eastwest;fontColor=#000000;shadow=0;" parent="NYrXTHvHU7heu8sLdSl8-102" vertex="1"><mxGeometry y="34" width="160" height="26" as="geometry"/></mxCell><mxCell id="NYrXTHvHU7heu8sLdSl8-105" value="+ collide(Entity) boolean" style="text;html=1;strokeColor=#BD7000;fillColor=#f0a30a;align=left;verticalAlign=top;spacingLeft=4;spacingRight=4;whiteSpace=wrap;overflow=hidden;rotatable=0;points=[[0,0.5],[1,0.5]];portConstraint=eastwest;fontColor=#000000;shadow=0;" parent="NYrXTHvHU7heu8sLdSl8-102" vertex="1"><mxGeometry y="60" width="160" height="26" as="geometry"/></mxCell><mxCell id="NYrXTHvHU7heu8sLdSl8-110" style="edgeStyle=orthogonalEdgeStyle;rounded=0;orthogonalLoop=1;jettySize=auto;html=1;entryX=0.25;entryY=1;entryDx=0;entryDy=0;exitX=0.5;exitY=0;exitDx=0;exitDy=0;fillColor=#f0a30a;strokeColor=#BD7000;shadow=0;" parent="1" source="NYrXTHvHU7heu8sLdSl8-106" target="78961159f06e98e8-108" edge="1"><mxGeometry relative="1" as="geometry"/></mxCell><mxCell id="NYrXTHvHU7heu8sLdSl8-106" value="BombItem" style="swimlane;html=1;fontStyle=1;align=center;verticalAlign=top;childLayout=stackLayout;horizontal=1;startSize=26;horizontalStack=0;resizeParent=1;resizeLast=0;collapsible=1;marginBottom=0;swimlaneFillColor=#ffffff;rounded=0;shadow=0;comic=0;labelBackgroundColor=none;strokeWidth=1;fillColor=#f0a30a;fontFamily=Verdana;fontSize=12;strokeColor=#BD7000;fontColor=#000000;" parent="1" vertex="1"><mxGeometry x="1139" y="280" width="160" height="100" as="geometry"/></mxCell><mxCell id="NYrXTHvHU7heu8sLdSl8-107" value="" style="line;html=1;strokeWidth=1;fillColor=#f0a30a;align=left;verticalAlign=middle;spacingTop=-1;spacingLeft=3;spacingRight=3;rotatable=0;labelPosition=right;points=[];portConstraint=eastwest;strokeColor=#BD7000;fontColor=#000000;shadow=0;" parent="NYrXTHvHU7heu8sLdSl8-106" vertex="1"><mxGeometry y="26" width="160" height="8" as="geometry"/></mxCell><mxCell id="NYrXTHvHU7heu8sLdSl8-108" value="+ BombItem (int, int, Sprite)" style="text;html=1;strokeColor=#BD7000;fillColor=#f0a30a;align=left;verticalAlign=top;spacingLeft=4;spacingRight=4;whiteSpace=wrap;overflow=hidden;rotatable=0;points=[[0,0.5],[1,0.5]];portConstraint=eastwest;fontColor=#000000;shadow=0;" parent="NYrXTHvHU7heu8sLdSl8-106" vertex="1"><mxGeometry y="34" width="160" height="26" as="geometry"/></mxCell><mxCell id="NYrXTHvHU7heu8sLdSl8-109" value="+ collide(Entity) boolean" style="text;html=1;strokeColor=#BD7000;fillColor=#f0a30a;align=left;verticalAlign=top;spacingLeft=4;spacingRight=4;whiteSpace=wrap;overflow=hidden;rotatable=0;points=[[0,0.5],[1,0.5]];portConstraint=eastwest;fontColor=#000000;shadow=0;" parent="NYrXTHvHU7heu8sLdSl8-106" vertex="1"><mxGeometry y="60" width="160" height="26" as="geometry"/></mxCell><mxCell id="NYrXTHvHU7heu8sLdSl8-117" style="edgeStyle=orthogonalEdgeStyle;rounded=0;orthogonalLoop=1;jettySize=auto;html=1;entryX=1;entryY=0.5;entryDx=0;entryDy=0;fillColor=#f0a30a;strokeColor=#BD7000;shadow=0;" parent="1" source="NYrXTHvHU7heu8sLdSl8-113" target="78961159f06e98e8-68" edge="1"><mxGeometry relative="1" as="geometry"/></mxCell><mxCell id="NYrXTHvHU7heu8sLdSl8-113" value="DestroyableObject" style="swimlane;html=1;fontStyle=1;align=center;verticalAlign=top;childLayout=stackLayout;horizontal=1;startSize=26;horizontalStack=0;resizeParent=1;resizeLast=0;collapsible=1;marginBottom=0;swimlaneFillColor=#ffffff;rounded=0;shadow=0;comic=0;labelBackgroundColor=none;strokeWidth=1;fillColor=#f0a30a;fontFamily=Verdana;fontSize=12;strokeColor=#BD7000;fontColor=#000000;" parent="1" vertex="1"><mxGeometry x="1810" y="40" width="160" height="300" as="geometry"/></mxCell><mxCell id="NYrXTHvHU7heu8sLdSl8-115" value="+ _animate int&lt;br&gt;" style="text;html=1;strokeColor=#BD7000;fillColor=#f0a30a;align=left;verticalAlign=top;spacingLeft=4;spacingRight=4;whiteSpace=wrap;overflow=hidden;rotatable=0;points=[[0,0.5],[1,0.5]];portConstraint=eastwest;fontColor=#000000;shadow=0;" parent="NYrXTHvHU7heu8sLdSl8-113" vertex="1"><mxGeometry y="26" width="160" height="24" as="geometry"/></mxCell><mxCell id="NYrXTHvHU7heu8sLdSl8-116" value="+ MAX_ANIMATE int" style="text;html=1;strokeColor=#BD7000;fillColor=#f0a30a;align=left;verticalAlign=top;spacingLeft=4;spacingRight=4;whiteSpace=wrap;overflow=hidden;rotatable=0;points=[[0,0.5],[1,0.5]];portConstraint=eastwest;fontColor=#000000;shadow=0;" parent="NYrXTHvHU7heu8sLdSl8-113" vertex="1"><mxGeometry y="50" width="160" height="26" as="geometry"/></mxCell><mxCell id="NYrXTHvHU7heu8sLdSl8-120" value="+ _belowSprite Sprite" style="text;html=1;strokeColor=#BD7000;fillColor=#f0a30a;align=left;verticalAlign=top;spacingLeft=4;spacingRight=4;whiteSpace=wrap;overflow=hidden;rotatable=0;points=[[0,0.5],[1,0.5]];portConstraint=eastwest;fontColor=#000000;shadow=0;" parent="NYrXTHvHU7heu8sLdSl8-113" vertex="1"><mxGeometry y="76" width="160" height="26" as="geometry"/></mxCell><mxCell id="NYrXTHvHU7heu8sLdSl8-119" value="+ _timeToDisapear int" style="text;html=1;strokeColor=#BD7000;fillColor=#f0a30a;align=left;verticalAlign=top;spacingLeft=4;spacingRight=4;whiteSpace=wrap;overflow=hidden;rotatable=0;points=[[0,0.5],[1,0.5]];portConstraint=eastwest;fontColor=#000000;shadow=0;" parent="NYrXTHvHU7heu8sLdSl8-113" vertex="1"><mxGeometry y="102" width="160" height="26" as="geometry"/></mxCell><mxCell id="NYrXTHvHU7heu8sLdSl8-118" value="+ _destroyed boolean" style="text;html=1;strokeColor=#BD7000;fillColor=#f0a30a;align=left;verticalAlign=top;spacingLeft=4;spacingRight=4;whiteSpace=wrap;overflow=hidden;rotatable=0;points=[[0,0.5],[1,0.5]];portConstraint=eastwest;fontColor=#000000;shadow=0;" parent="NYrXTHvHU7heu8sLdSl8-113" vertex="1"><mxGeometry y="128" width="160" height="26" as="geometry"/></mxCell><mxCell id="NYrXTHvHU7heu8sLdSl8-114" value="" style="line;html=1;strokeWidth=1;fillColor=#f0a30a;align=left;verticalAlign=middle;spacingTop=-1;spacingLeft=3;spacingRight=3;rotatable=0;labelPosition=right;points=[];portConstraint=eastwest;strokeColor=#BD7000;fontColor=#000000;shadow=0;" parent="NYrXTHvHU7heu8sLdSl8-113" vertex="1"><mxGeometry y="154" width="160" height="8" as="geometry"/></mxCell><mxCell id="NYrXTHvHU7heu8sLdSl8-121" value="+ collide(Entity) boolean" style="text;html=1;strokeColor=#BD7000;fillColor=#f0a30a;align=left;verticalAlign=top;spacingLeft=4;spacingRight=4;whiteSpace=wrap;overflow=hidden;rotatable=0;points=[[0,0.5],[1,0.5]];portConstraint=eastwest;fontColor=#000000;shadow=0;" parent="NYrXTHvHU7heu8sLdSl8-113" vertex="1"><mxGeometry y="162" width="160" height="26" as="geometry"/></mxCell><mxCell id="NYrXTHvHU7heu8sLdSl8-122" value="+ update() void" style="text;html=1;strokeColor=#BD7000;fillColor=#f0a30a;align=left;verticalAlign=top;spacingLeft=4;spacingRight=4;whiteSpace=wrap;overflow=hidden;rotatable=0;points=[[0,0.5],[1,0.5]];portConstraint=eastwest;fontColor=#000000;shadow=0;" parent="NYrXTHvHU7heu8sLdSl8-113" vertex="1"><mxGeometry y="188" width="160" height="26" as="geometry"/></mxCell><mxCell id="NYrXTHvHU7heu8sLdSl8-123" value="+ destroy() void" style="text;html=1;strokeColor=#BD7000;fillColor=#f0a30a;align=left;verticalAlign=top;spacingLeft=4;spacingRight=4;whiteSpace=wrap;overflow=hidden;rotatable=0;points=[[0,0.5],[1,0.5]];portConstraint=eastwest;fontColor=#000000;shadow=0;" parent="NYrXTHvHU7heu8sLdSl8-113" vertex="1"><mxGeometry y="214" width="160" height="26" as="geometry"/></mxCell><mxCell id="NYrXTHvHU7heu8sLdSl8-124" value="+ addBelowSprite() void" style="text;html=1;strokeColor=#BD7000;fillColor=#f0a30a;align=left;verticalAlign=top;spacingLeft=4;spacingRight=4;whiteSpace=wrap;overflow=hidden;rotatable=0;points=[[0,0.5],[1,0.5]];portConstraint=eastwest;fontColor=#000000;shadow=0;" parent="NYrXTHvHU7heu8sLdSl8-113" vertex="1"><mxGeometry y="240" width="160" height="26" as="geometry"/></mxCell><mxCell id="NYrXTHvHU7heu8sLdSl8-125" value="+ movinhSprite()&amp;nbsp; Sprite" style="text;html=1;strokeColor=#BD7000;fillColor=#f0a30a;align=left;verticalAlign=top;spacingLeft=4;spacingRight=4;whiteSpace=wrap;overflow=hidden;rotatable=0;points=[[0,0.5],[1,0.5]];portConstraint=eastwest;fontColor=#000000;shadow=0;" parent="NYrXTHvHU7heu8sLdSl8-113" vertex="1"><mxGeometry y="266" width="160" height="26" as="geometry"/></mxCell><mxCell id="NYrXTHvHU7heu8sLdSl8-130" style="edgeStyle=orthogonalEdgeStyle;rounded=0;orthogonalLoop=1;jettySize=auto;html=1;fillColor=#f0a30a;strokeColor=#BD7000;shadow=0;" parent="1" source="NYrXTHvHU7heu8sLdSl8-126" edge="1"><mxGeometry relative="1" as="geometry"><mxPoint x="1910" y="340" as="targetPoint"/></mxGeometry></mxCell><mxCell id="NYrXTHvHU7heu8sLdSl8-126" value="Brick" style="swimlane;html=1;fontStyle=1;align=center;verticalAlign=top;childLayout=stackLayout;horizontal=1;startSize=26;horizontalStack=0;resizeParent=1;resizeLast=0;collapsible=1;marginBottom=0;swimlaneFillColor=#ffffff;rounded=0;shadow=0;comic=0;labelBackgroundColor=none;strokeWidth=1;fillColor=#f0a30a;fontFamily=Verdana;fontSize=12;strokeColor=#BD7000;fontColor=#000000;" parent="1" vertex="1"><mxGeometry x="1810" y="425" width="160" height="145" as="geometry"/></mxCell><mxCell id="NYrXTHvHU7heu8sLdSl8-127" value="" style="line;html=1;strokeWidth=1;fillColor=#f0a30a;align=left;verticalAlign=middle;spacingTop=-1;spacingLeft=3;spacingRight=3;rotatable=0;labelPosition=right;points=[];portConstraint=eastwest;strokeColor=#BD7000;fontColor=#000000;shadow=0;" parent="NYrXTHvHU7heu8sLdSl8-126" vertex="1"><mxGeometry y="26" width="160" height="8" as="geometry"/></mxCell><mxCell id="NYrXTHvHU7heu8sLdSl8-128" value="+ Brick (int, int, Sprite)" style="text;html=1;strokeColor=#BD7000;fillColor=#f0a30a;align=left;verticalAlign=top;spacingLeft=4;spacingRight=4;whiteSpace=wrap;overflow=hidden;rotatable=0;points=[[0,0.5],[1,0.5]];portConstraint=eastwest;fontColor=#000000;shadow=0;" parent="NYrXTHvHU7heu8sLdSl8-126" vertex="1"><mxGeometry y="34" width="160" height="26" as="geometry"/></mxCell><mxCell id="NYrXTHvHU7heu8sLdSl8-129" value="+ update() void" style="text;html=1;strokeColor=#BD7000;fillColor=#f0a30a;align=left;verticalAlign=top;spacingLeft=4;spacingRight=4;whiteSpace=wrap;overflow=hidden;rotatable=0;points=[[0,0.5],[1,0.5]];portConstraint=eastwest;fontColor=#000000;shadow=0;" parent="NYrXTHvHU7heu8sLdSl8-126" vertex="1"><mxGeometry y="60" width="160" height="26" as="geometry"/></mxCell><mxCell id="NYrXTHvHU7heu8sLdSl8-131" value="+ render(Screen) void" style="text;html=1;strokeColor=#BD7000;fillColor=#f0a30a;align=left;verticalAlign=top;spacingLeft=4;spacingRight=4;whiteSpace=wrap;overflow=hidden;rotatable=0;points=[[0,0.5],[1,0.5]];portConstraint=eastwest;fontColor=#000000;shadow=0;" parent="NYrXTHvHU7heu8sLdSl8-126" vertex="1"><mxGeometry y="86" width="160" height="26" as="geometry"/></mxCell><mxCell id="NYrXTHvHU7heu8sLdSl8-172" style="edgeStyle=orthogonalEdgeStyle;rounded=0;orthogonalLoop=1;jettySize=auto;html=1;entryX=1.023;entryY=0.041;entryDx=0;entryDy=0;entryPerimeter=0;fillColor=#f0a30a;strokeColor=#BD7000;shadow=0;" parent="1" source="NYrXTHvHU7heu8sLdSl8-153" target="78961159f06e98e8-69" edge="1"><mxGeometry relative="1" as="geometry"/></mxCell><mxCell id="NYrXTHvHU7heu8sLdSl8-153" value="BomBer" style="swimlane;html=1;fontStyle=1;align=center;verticalAlign=top;childLayout=stackLayout;horizontal=1;startSize=26;horizontalStack=0;resizeParent=1;resizeLast=0;collapsible=1;marginBottom=0;swimlaneFillColor=#ffffff;rounded=0;shadow=0;comic=0;labelBackgroundColor=none;strokeWidth=1;fillColor=#f0a30a;fontFamily=Verdana;fontSize=12;strokeColor=#BD7000;fontColor=#000000;" parent="1" vertex="1"><mxGeometry x="670" y="330" width="190" height="460" as="geometry"/></mxCell><mxCell id="NYrXTHvHU7heu8sLdSl8-154" value="+ _bombs List&amp;lt;Bomb&amp;gt;" style="text;html=1;strokeColor=#BD7000;fillColor=#f0a30a;align=left;verticalAlign=top;spacingLeft=4;spacingRight=4;whiteSpace=wrap;overflow=hidden;rotatable=0;points=[[0,0.5],[1,0.5]];portConstraint=eastwest;fontColor=#000000;shadow=0;" parent="NYrXTHvHU7heu8sLdSl8-153" vertex="1"><mxGeometry y="26" width="190" height="26" as="geometry"/></mxCell><mxCell id="NYrXTHvHU7heu8sLdSl8-157" value="+ _input InputKeyboard" style="text;html=1;strokeColor=#BD7000;fillColor=#f0a30a;align=left;verticalAlign=top;spacingLeft=4;spacingRight=4;whiteSpace=wrap;overflow=hidden;rotatable=0;points=[[0,0.5],[1,0.5]];portConstraint=eastwest;fontColor=#000000;shadow=0;" parent="NYrXTHvHU7heu8sLdSl8-153" vertex="1"><mxGeometry y="52" width="190" height="26" as="geometry"/></mxCell><mxCell id="NYrXTHvHU7heu8sLdSl8-158" value="+ _timeBetweenPutBombs int" style="text;html=1;strokeColor=#BD7000;fillColor=#f0a30a;align=left;verticalAlign=top;spacingLeft=4;spacingRight=4;whiteSpace=wrap;overflow=hidden;rotatable=0;points=[[0,0.5],[1,0.5]];portConstraint=eastwest;fontColor=#000000;shadow=0;" parent="NYrXTHvHU7heu8sLdSl8-153" vertex="1"><mxGeometry y="78" width="190" height="26" as="geometry"/></mxCell><mxCell id="NYrXTHvHU7heu8sLdSl8-159" value="" style="line;html=1;strokeWidth=1;fillColor=#f0a30a;align=left;verticalAlign=middle;spacingTop=-1;spacingLeft=3;spacingRight=3;rotatable=0;labelPosition=right;points=[];portConstraint=eastwest;strokeColor=#BD7000;fontColor=#000000;shadow=0;" parent="NYrXTHvHU7heu8sLdSl8-153" vertex="1"><mxGeometry y="104" width="190" height="8" as="geometry"/></mxCell><mxCell id="NYrXTHvHU7heu8sLdSl8-160" value="+ update() void" style="text;html=1;strokeColor=#BD7000;fillColor=#f0a30a;align=left;verticalAlign=top;spacingLeft=4;spacingRight=4;whiteSpace=wrap;overflow=hidden;rotatable=0;points=[[0,0.5],[1,0.5]];portConstraint=eastwest;fontColor=#000000;shadow=0;" parent="NYrXTHvHU7heu8sLdSl8-153" vertex="1"><mxGeometry y="112" width="190" height="26" as="geometry"/></mxCell><mxCell id="NYrXTHvHU7heu8sLdSl8-161" value="+ render( Screen) void" style="text;html=1;strokeColor=#BD7000;fillColor=#f0a30a;align=left;verticalAlign=top;spacingLeft=4;spacingRight=4;whiteSpace=wrap;overflow=hidden;rotatable=0;points=[[0,0.5],[1,0.5]];portConstraint=eastwest;fontColor=#000000;shadow=0;" parent="NYrXTHvHU7heu8sLdSl8-153" vertex="1"><mxGeometry y="138" width="190" height="26" as="geometry"/></mxCell><mxCell id="NYrXTHvHU7heu8sLdSl8-162" value="+ calculateMove() void" style="text;html=1;strokeColor=#BD7000;fillColor=#f0a30a;align=left;verticalAlign=top;spacingLeft=4;spacingRight=4;whiteSpace=wrap;overflow=hidden;rotatable=0;points=[[0,0.5],[1,0.5]];portConstraint=eastwest;fontColor=#000000;shadow=0;" parent="NYrXTHvHU7heu8sLdSl8-153" vertex="1"><mxGeometry y="164" width="190" height="26" as="geometry"/></mxCell><mxCell id="NYrXTHvHU7heu8sLdSl8-163" value="+ move() void&amp;nbsp;" style="text;html=1;strokeColor=#BD7000;fillColor=#f0a30a;align=left;verticalAlign=top;spacingLeft=4;spacingRight=4;whiteSpace=wrap;overflow=hidden;rotatable=0;points=[[0,0.5],[1,0.5]];portConstraint=eastwest;fontColor=#000000;shadow=0;" parent="NYrXTHvHU7heu8sLdSl8-153" vertex="1"><mxGeometry y="190" width="190" height="26" as="geometry"/></mxCell><mxCell id="NYrXTHvHU7heu8sLdSl8-164" value="+ canMove()&amp;nbsp; boolean" style="text;html=1;strokeColor=#BD7000;fillColor=#f0a30a;align=left;verticalAlign=top;spacingLeft=4;spacingRight=4;whiteSpace=wrap;overflow=hidden;rotatable=0;points=[[0,0.5],[1,0.5]];portConstraint=eastwest;fontColor=#000000;shadow=0;" parent="NYrXTHvHU7heu8sLdSl8-153" vertex="1"><mxGeometry y="216" width="190" height="26" as="geometry"/></mxCell><mxCell id="NYrXTHvHU7heu8sLdSl8-165" value="+ kill() void" style="text;html=1;strokeColor=#BD7000;fillColor=#f0a30a;align=left;verticalAlign=top;spacingLeft=4;spacingRight=4;whiteSpace=wrap;overflow=hidden;rotatable=0;points=[[0,0.5],[1,0.5]];portConstraint=eastwest;fontColor=#000000;shadow=0;" parent="NYrXTHvHU7heu8sLdSl8-153" vertex="1"><mxGeometry y="242" width="190" height="26" as="geometry"/></mxCell><mxCell id="NYrXTHvHU7heu8sLdSl8-166" value="+ afterKill() void" style="text;html=1;strokeColor=#BD7000;fillColor=#f0a30a;align=left;verticalAlign=top;spacingLeft=4;spacingRight=4;whiteSpace=wrap;overflow=hidden;rotatable=0;points=[[0,0.5],[1,0.5]];portConstraint=eastwest;fontColor=#000000;shadow=0;" parent="NYrXTHvHU7heu8sLdSl8-153" vertex="1"><mxGeometry y="268" width="190" height="26" as="geometry"/></mxCell><mxCell id="NYrXTHvHU7heu8sLdSl8-167" value="+ calculateXOffset() void" style="text;html=1;strokeColor=#BD7000;fillColor=#f0a30a;align=left;verticalAlign=top;spacingLeft=4;spacingRight=4;whiteSpace=wrap;overflow=hidden;rotatable=0;points=[[0,0.5],[1,0.5]];portConstraint=eastwest;fontColor=#000000;shadow=0;" parent="NYrXTHvHU7heu8sLdSl8-153" vertex="1"><mxGeometry y="294" width="190" height="26" as="geometry"/></mxCell><mxCell id="NYrXTHvHU7heu8sLdSl8-168" value="+ placeBomb(int, int) void" style="text;html=1;strokeColor=#BD7000;fillColor=#f0a30a;align=left;verticalAlign=top;spacingLeft=4;spacingRight=4;whiteSpace=wrap;overflow=hidden;rotatable=0;points=[[0,0.5],[1,0.5]];portConstraint=eastwest;fontColor=#000000;shadow=0;" parent="NYrXTHvHU7heu8sLdSl8-153" vertex="1"><mxGeometry y="320" width="190" height="26" as="geometry"/></mxCell><mxCell id="NYrXTHvHU7heu8sLdSl8-169" value="+ detectPlaceBomb() void" style="text;html=1;strokeColor=#BD7000;fillColor=#f0a30a;align=left;verticalAlign=top;spacingLeft=4;spacingRight=4;whiteSpace=wrap;overflow=hidden;rotatable=0;points=[[0,0.5],[1,0.5]];portConstraint=eastwest;fontColor=#000000;shadow=0;" parent="NYrXTHvHU7heu8sLdSl8-153" vertex="1"><mxGeometry y="346" width="190" height="26" as="geometry"/></mxCell><mxCell id="NYrXTHvHU7heu8sLdSl8-170" value="+ clearsBombs() void" style="text;html=1;strokeColor=#BD7000;fillColor=#f0a30a;align=left;verticalAlign=top;spacingLeft=4;spacingRight=4;whiteSpace=wrap;overflow=hidden;rotatable=0;points=[[0,0.5],[1,0.5]];portConstraint=eastwest;fontColor=#000000;shadow=0;" parent="NYrXTHvHU7heu8sLdSl8-153" vertex="1"><mxGeometry y="372" width="190" height="26" as="geometry"/></mxCell><mxCell id="NYrXTHvHU7heu8sLdSl8-171" value="+ chooseSprite() void" style="text;html=1;strokeColor=#BD7000;fillColor=#f0a30a;align=left;verticalAlign=top;spacingLeft=4;spacingRight=4;whiteSpace=wrap;overflow=hidden;rotatable=0;points=[[0,0.5],[1,0.5]];portConstraint=eastwest;fontColor=#000000;shadow=0;" parent="NYrXTHvHU7heu8sLdSl8-153" vertex="1"><mxGeometry y="398" width="190" height="26" as="geometry"/></mxCell><mxCell id="NYrXTHvHU7heu8sLdSl8-173" value="+ collide(Entity) boolean" style="text;html=1;strokeColor=#BD7000;fillColor=#f0a30a;align=left;verticalAlign=top;spacingLeft=4;spacingRight=4;whiteSpace=wrap;overflow=hidden;rotatable=0;points=[[0,0.5],[1,0.5]];portConstraint=eastwest;fontColor=#000000;shadow=0;" parent="NYrXTHvHU7heu8sLdSl8-153" vertex="1"><mxGeometry y="424" width="190" height="26" as="geometry"/></mxCell><mxCell id="NYrXTHvHU7heu8sLdSl8-194" style="edgeStyle=orthogonalEdgeStyle;rounded=0;orthogonalLoop=1;jettySize=auto;html=1;entryX=-0.013;entryY=0.047;entryDx=0;entryDy=0;entryPerimeter=0;fillColor=#f0a30a;strokeColor=#BD7000;shadow=0;" parent="1" source="NYrXTHvHU7heu8sLdSl8-174" target="78961159f06e98e8-69" edge="1"><mxGeometry relative="1" as="geometry"/></mxCell><mxCell id="NYrXTHvHU7heu8sLdSl8-174" value="Enemy" style="swimlane;html=1;fontStyle=1;align=center;verticalAlign=top;childLayout=stackLayout;horizontal=1;startSize=26;horizontalStack=0;resizeParent=1;resizeLast=0;collapsible=1;marginBottom=0;swimlaneFillColor=#ffffff;rounded=0;shadow=0;comic=0;labelBackgroundColor=none;strokeWidth=1;fillColor=#f0a30a;fontFamily=Verdana;fontSize=12;strokeColor=#BD7000;fontColor=#000000;" parent="1" vertex="1"><mxGeometry x="70" y="360" width="190" height="470" as="geometry"/></mxCell><mxCell id="NYrXTHvHU7heu8sLdSl8-175" value="+ _points int" style="text;html=1;strokeColor=#BD7000;fillColor=#f0a30a;align=left;verticalAlign=top;spacingLeft=4;spacingRight=4;whiteSpace=wrap;overflow=hidden;rotatable=0;points=[[0,0.5],[1,0.5]];portConstraint=eastwest;fontColor=#000000;shadow=0;" parent="NYrXTHvHU7heu8sLdSl8-174" vertex="1"><mxGeometry y="26" width="190" height="26" as="geometry"/></mxCell><mxCell id="NYrXTHvHU7heu8sLdSl8-176" value="+ _speed double" style="text;html=1;strokeColor=#BD7000;fillColor=#f0a30a;align=left;verticalAlign=top;spacingLeft=4;spacingRight=4;whiteSpace=wrap;overflow=hidden;rotatable=0;points=[[0,0.5],[1,0.5]];portConstraint=eastwest;fontColor=#000000;shadow=0;" parent="NYrXTHvHU7heu8sLdSl8-174" vertex="1"><mxGeometry y="52" width="190" height="26" as="geometry"/></mxCell><mxCell id="NYrXTHvHU7heu8sLdSl8-177" value="+ _AM AM (AutoMove)" style="text;html=1;strokeColor=#BD7000;fillColor=#f0a30a;align=left;verticalAlign=top;spacingLeft=4;spacingRight=4;whiteSpace=wrap;overflow=hidden;rotatable=0;points=[[0,0.5],[1,0.5]];portConstraint=eastwest;fontColor=#000000;shadow=0;" parent="NYrXTHvHU7heu8sLdSl8-174" vertex="1"><mxGeometry y="78" width="190" height="26" as="geometry"/></mxCell><mxCell id="NYrXTHvHU7heu8sLdSl8-178" value="+ MAX_STEPS" style="text;html=1;strokeColor=#BD7000;fillColor=#f0a30a;align=left;verticalAlign=top;spacingLeft=4;spacingRight=4;whiteSpace=wrap;overflow=hidden;rotatable=0;points=[[0,0.5],[1,0.5]];portConstraint=eastwest;fontColor=#000000;shadow=0;" parent="NYrXTHvHU7heu8sLdSl8-174" vertex="1"><mxGeometry y="104" width="190" height="26" as="geometry"/></mxCell><mxCell id="NYrXTHvHU7heu8sLdSl8-192" value="+ rest double" style="text;html=1;strokeColor=#BD7000;fillColor=#f0a30a;align=left;verticalAlign=top;spacingLeft=4;spacingRight=4;whiteSpace=wrap;overflow=hidden;rotatable=0;points=[[0,0.5],[1,0.5]];portConstraint=eastwest;fontColor=#000000;shadow=0;" parent="NYrXTHvHU7heu8sLdSl8-174" vertex="1"><mxGeometry y="130" width="190" height="26" as="geometry"/></mxCell><mxCell id="NYrXTHvHU7heu8sLdSl8-193" value="+ _steps double" style="text;html=1;strokeColor=#BD7000;fillColor=#f0a30a;align=left;verticalAlign=top;spacingLeft=4;spacingRight=4;whiteSpace=wrap;overflow=hidden;rotatable=0;points=[[0,0.5],[1,0.5]];portConstraint=eastwest;fontColor=#000000;shadow=0;" parent="NYrXTHvHU7heu8sLdSl8-174" vertex="1"><mxGeometry y="156" width="190" height="26" as="geometry"/></mxCell><mxCell id="NYrXTHvHU7heu8sLdSl8-190" value="+ _finalAnimation int" style="text;html=1;strokeColor=#BD7000;fillColor=#f0a30a;align=left;verticalAlign=top;spacingLeft=4;spacingRight=4;whiteSpace=wrap;overflow=hidden;rotatable=0;points=[[0,0.5],[1,0.5]];portConstraint=eastwest;fontColor=#000000;shadow=0;" parent="NYrXTHvHU7heu8sLdSl8-174" vertex="1"><mxGeometry y="182" width="190" height="26" as="geometry"/></mxCell><mxCell id="NYrXTHvHU7heu8sLdSl8-179" value="+ _deadSprite Sprite" style="text;html=1;strokeColor=#BD7000;fillColor=#f0a30a;align=left;verticalAlign=top;spacingLeft=4;spacingRight=4;whiteSpace=wrap;overflow=hidden;rotatable=0;points=[[0,0.5],[1,0.5]];portConstraint=eastwest;fontColor=#000000;shadow=0;" parent="NYrXTHvHU7heu8sLdSl8-174" vertex="1"><mxGeometry y="208" width="190" height="26" as="geometry"/></mxCell><mxCell id="NYrXTHvHU7heu8sLdSl8-180" value="" style="line;html=1;strokeWidth=1;fillColor=#f0a30a;align=left;verticalAlign=middle;spacingTop=-1;spacingLeft=3;spacingRight=3;rotatable=0;labelPosition=right;points=[];portConstraint=eastwest;strokeColor=#BD7000;fontColor=#000000;shadow=0;" parent="NYrXTHvHU7heu8sLdSl8-174" vertex="1"><mxGeometry y="234" width="190" height="8" as="geometry"/></mxCell><mxCell id="NYrXTHvHU7heu8sLdSl8-181" value="+ update() void" style="text;html=1;strokeColor=#BD7000;fillColor=#f0a30a;align=left;verticalAlign=top;spacingLeft=4;spacingRight=4;whiteSpace=wrap;overflow=hidden;rotatable=0;points=[[0,0.5],[1,0.5]];portConstraint=eastwest;fontColor=#000000;shadow=0;" parent="NYrXTHvHU7heu8sLdSl8-174" vertex="1"><mxGeometry y="242" width="190" height="26" as="geometry"/></mxCell><mxCell id="NYrXTHvHU7heu8sLdSl8-182" value="+ render( Screen) void" style="text;html=1;strokeColor=#BD7000;fillColor=#f0a30a;align=left;verticalAlign=top;spacingLeft=4;spacingRight=4;whiteSpace=wrap;overflow=hidden;rotatable=0;points=[[0,0.5],[1,0.5]];portConstraint=eastwest;fontColor=#000000;shadow=0;" parent="NYrXTHvHU7heu8sLdSl8-174" vertex="1"><mxGeometry y="268" width="190" height="26" as="geometry"/></mxCell><mxCell id="NYrXTHvHU7heu8sLdSl8-183" value="+ calculateMove() void" style="text;html=1;strokeColor=#BD7000;fillColor=#f0a30a;align=left;verticalAlign=top;spacingLeft=4;spacingRight=4;whiteSpace=wrap;overflow=hidden;rotatable=0;points=[[0,0.5],[1,0.5]];portConstraint=eastwest;fontColor=#000000;shadow=0;" parent="NYrXTHvHU7heu8sLdSl8-174" vertex="1"><mxGeometry y="294" width="190" height="26" as="geometry"/></mxCell><mxCell id="NYrXTHvHU7heu8sLdSl8-184" value="+ move() void&amp;nbsp;" style="text;html=1;strokeColor=#BD7000;fillColor=#f0a30a;align=left;verticalAlign=top;spacingLeft=4;spacingRight=4;whiteSpace=wrap;overflow=hidden;rotatable=0;points=[[0,0.5],[1,0.5]];portConstraint=eastwest;fontColor=#000000;shadow=0;" parent="NYrXTHvHU7heu8sLdSl8-174" vertex="1"><mxGeometry y="320" width="190" height="26" as="geometry"/></mxCell><mxCell id="NYrXTHvHU7heu8sLdSl8-185" value="+ canMove()&amp;nbsp; boolean" style="text;html=1;strokeColor=#BD7000;fillColor=#f0a30a;align=left;verticalAlign=top;spacingLeft=4;spacingRight=4;whiteSpace=wrap;overflow=hidden;rotatable=0;points=[[0,0.5],[1,0.5]];portConstraint=eastwest;fontColor=#000000;shadow=0;" parent="NYrXTHvHU7heu8sLdSl8-174" vertex="1"><mxGeometry y="346" width="190" height="26" as="geometry"/></mxCell><mxCell id="NYrXTHvHU7heu8sLdSl8-186" value="+ kill() void" style="text;html=1;strokeColor=#BD7000;fillColor=#f0a30a;align=left;verticalAlign=top;spacingLeft=4;spacingRight=4;whiteSpace=wrap;overflow=hidden;rotatable=0;points=[[0,0.5],[1,0.5]];portConstraint=eastwest;fontColor=#000000;shadow=0;" parent="NYrXTHvHU7heu8sLdSl8-174" vertex="1"><mxGeometry y="372" width="190" height="26" as="geometry"/></mxCell><mxCell id="NYrXTHvHU7heu8sLdSl8-187" value="+ afterKill() void" style="text;html=1;strokeColor=#BD7000;fillColor=#f0a30a;align=left;verticalAlign=top;spacingLeft=4;spacingRight=4;whiteSpace=wrap;overflow=hidden;rotatable=0;points=[[0,0.5],[1,0.5]];portConstraint=eastwest;fontColor=#000000;shadow=0;" parent="NYrXTHvHU7heu8sLdSl8-174" vertex="1"><mxGeometry y="398" width="190" height="26" as="geometry"/></mxCell><mxCell id="NYrXTHvHU7heu8sLdSl8-188" value="+ chooseSprite() void" style="text;html=1;strokeColor=#BD7000;fillColor=#f0a30a;align=left;verticalAlign=top;spacingLeft=4;spacingRight=4;whiteSpace=wrap;overflow=hidden;rotatable=0;points=[[0,0.5],[1,0.5]];portConstraint=eastwest;fontColor=#000000;shadow=0;" parent="NYrXTHvHU7heu8sLdSl8-174" vertex="1"><mxGeometry y="424" width="190" height="26" as="geometry"/></mxCell><mxCell id="NYrXTHvHU7heu8sLdSl8-212" style="edgeStyle=orthogonalEdgeStyle;rounded=0;orthogonalLoop=1;jettySize=auto;html=1;exitX=0.584;exitY=0.007;exitDx=0;exitDy=0;exitPerimeter=0;fillColor=#f0a30a;strokeColor=#BD7000;shadow=0;" parent="1" source="NYrXTHvHU7heu8sLdSl8-199" edge="1"><mxGeometry relative="1" as="geometry"><mxPoint x="110" y="830" as="targetPoint"/><mxPoint x="-20" y="900" as="sourcePoint"/></mxGeometry></mxCell><mxCell id="NYrXTHvHU7heu8sLdSl8-199" value="Balloom" style="swimlane;html=1;fontStyle=1;align=center;verticalAlign=top;childLayout=stackLayout;horizontal=1;startSize=26;horizontalStack=0;resizeParent=1;resizeLast=0;collapsible=1;marginBottom=0;swimlaneFillColor=#ffffff;rounded=0;shadow=0;comic=0;labelBackgroundColor=none;strokeWidth=1;fillColor=#f0a30a;fontFamily=Verdana;fontSize=12;strokeColor=#BD7000;fontColor=#000000;" parent="1" vertex="1"><mxGeometry x="-140" y="910" width="180" height="145" as="geometry"/></mxCell><mxCell id="NYrXTHvHU7heu8sLdSl8-200" value="" style="line;html=1;strokeWidth=1;fillColor=#f0a30a;align=left;verticalAlign=middle;spacingTop=-1;spacingLeft=3;spacingRight=3;rotatable=0;labelPosition=right;points=[];portConstraint=eastwest;strokeColor=#BD7000;fontColor=#000000;shadow=0;" parent="NYrXTHvHU7heu8sLdSl8-199" vertex="1"><mxGeometry y="26" width="180" height="8" as="geometry"/></mxCell><mxCell id="NYrXTHvHU7heu8sLdSl8-201" value="+ Balloom(int, int, GameBoard)" style="text;html=1;strokeColor=#BD7000;fillColor=#f0a30a;align=left;verticalAlign=top;spacingLeft=4;spacingRight=4;whiteSpace=wrap;overflow=hidden;rotatable=0;points=[[0,0.5],[1,0.5]];portConstraint=eastwest;fontColor=#000000;shadow=0;" parent="NYrXTHvHU7heu8sLdSl8-199" vertex="1"><mxGeometry y="34" width="180" height="26" as="geometry"/></mxCell><mxCell id="NYrXTHvHU7heu8sLdSl8-202" value="+ chooseSprite() void" style="text;html=1;strokeColor=#BD7000;fillColor=#f0a30a;align=left;verticalAlign=top;spacingLeft=4;spacingRight=4;whiteSpace=wrap;overflow=hidden;rotatable=0;points=[[0,0.5],[1,0.5]];portConstraint=eastwest;fontColor=#000000;shadow=0;" parent="NYrXTHvHU7heu8sLdSl8-199" vertex="1"><mxGeometry y="60" width="180" height="26" as="geometry"/></mxCell><mxCell id="NYrXTHvHU7heu8sLdSl8-211" style="edgeStyle=orthogonalEdgeStyle;rounded=0;orthogonalLoop=1;jettySize=auto;html=1;fillColor=#f0a30a;strokeColor=#BD7000;shadow=0;" parent="1" source="NYrXTHvHU7heu8sLdSl8-203" edge="1"><mxGeometry relative="1" as="geometry"><mxPoint x="160" y="830" as="targetPoint"/></mxGeometry></mxCell><mxCell id="NYrXTHvHU7heu8sLdSl8-203" value="Oneal" style="swimlane;html=1;fontStyle=1;align=center;verticalAlign=top;childLayout=stackLayout;horizontal=1;startSize=26;horizontalStack=0;resizeParent=1;resizeLast=0;collapsible=1;marginBottom=0;swimlaneFillColor=#ffffff;rounded=0;shadow=0;comic=0;labelBackgroundColor=none;strokeWidth=1;fillColor=#f0a30a;fontFamily=Verdana;fontSize=12;strokeColor=#BD7000;fontColor=#000000;" parent="1" vertex="1"><mxGeometry x="70" y="910" width="180" height="145" as="geometry"/></mxCell><mxCell id="NYrXTHvHU7heu8sLdSl8-204" value="" style="line;html=1;strokeWidth=1;fillColor=#f0a30a;align=left;verticalAlign=middle;spacingTop=-1;spacingLeft=3;spacingRight=3;rotatable=0;labelPosition=right;points=[];portConstraint=eastwest;strokeColor=#BD7000;fontColor=#000000;shadow=0;" parent="NYrXTHvHU7heu8sLdSl8-203" vertex="1"><mxGeometry y="26" width="180" height="8" as="geometry"/></mxCell><mxCell id="NYrXTHvHU7heu8sLdSl8-209" value="+ Oneal(int, int, GameBoard)" style="text;html=1;strokeColor=#BD7000;fillColor=#f0a30a;align=left;verticalAlign=top;spacingLeft=4;spacingRight=4;whiteSpace=wrap;overflow=hidden;rotatable=0;points=[[0,0.5],[1,0.5]];portConstraint=eastwest;fontColor=#000000;shadow=0;" parent="NYrXTHvHU7heu8sLdSl8-203" vertex="1"><mxGeometry y="34" width="180" height="26" as="geometry"/></mxCell><mxCell id="NYrXTHvHU7heu8sLdSl8-208" value="+ chooseSprite() void" style="text;html=1;strokeColor=#BD7000;fillColor=#f0a30a;align=left;verticalAlign=top;spacingLeft=4;spacingRight=4;whiteSpace=wrap;overflow=hidden;rotatable=0;points=[[0,0.5],[1,0.5]];portConstraint=eastwest;fontColor=#000000;shadow=0;" parent="NYrXTHvHU7heu8sLdSl8-203" vertex="1"><mxGeometry y="60" width="180" height="26" as="geometry"/></mxCell><mxCell id="NYrXTHvHU7heu8sLdSl8-213" style="edgeStyle=orthogonalEdgeStyle;rounded=0;orthogonalLoop=1;jettySize=auto;html=1;exitX=0.411;exitY=0.007;exitDx=0;exitDy=0;exitPerimeter=0;fillColor=#f0a30a;strokeColor=#BD7000;shadow=0;" parent="1" source="NYrXTHvHU7heu8sLdSl8-195" edge="1"><mxGeometry relative="1" as="geometry"><mxPoint x="200" y="830" as="targetPoint"/></mxGeometry></mxCell><mxCell id="NYrXTHvHU7heu8sLdSl8-195" value="Doll" style="swimlane;html=1;fontStyle=1;align=center;verticalAlign=top;childLayout=stackLayout;horizontal=1;startSize=26;horizontalStack=0;resizeParent=1;resizeLast=0;collapsible=1;marginBottom=0;swimlaneFillColor=#ffffff;rounded=0;shadow=0;comic=0;labelBackgroundColor=none;strokeWidth=1;fillColor=#f0a30a;fontFamily=Verdana;fontSize=12;strokeColor=#BD7000;fontColor=#000000;" parent="1" vertex="1"><mxGeometry x="280" y="910" width="190" height="145" as="geometry"/></mxCell><mxCell id="NYrXTHvHU7heu8sLdSl8-196" value="" style="line;html=1;strokeWidth=1;fillColor=#f0a30a;align=left;verticalAlign=middle;spacingTop=-1;spacingLeft=3;spacingRight=3;rotatable=0;labelPosition=right;points=[];portConstraint=eastwest;strokeColor=#BD7000;fontColor=#000000;shadow=0;" parent="NYrXTHvHU7heu8sLdSl8-195" vertex="1"><mxGeometry y="26" width="190" height="8" as="geometry"/></mxCell><mxCell id="NYrXTHvHU7heu8sLdSl8-210" value="+ Doll(int, int, GameBoard)" style="text;html=1;strokeColor=#BD7000;fillColor=#f0a30a;align=left;verticalAlign=top;spacingLeft=4;spacingRight=4;whiteSpace=wrap;overflow=hidden;rotatable=0;points=[[0,0.5],[1,0.5]];portConstraint=eastwest;fontColor=#000000;shadow=0;" parent="NYrXTHvHU7heu8sLdSl8-195" vertex="1"><mxGeometry y="34" width="190" height="26" as="geometry"/></mxCell><mxCell id="NYrXTHvHU7heu8sLdSl8-207" value="+ chooseSprite() void" style="text;html=1;strokeColor=#BD7000;fillColor=#f0a30a;align=left;verticalAlign=top;spacingLeft=4;spacingRight=4;whiteSpace=wrap;overflow=hidden;rotatable=0;points=[[0,0.5],[1,0.5]];portConstraint=eastwest;fontColor=#000000;shadow=0;" parent="NYrXTHvHU7heu8sLdSl8-195" vertex="1"><mxGeometry y="60" width="190" height="26" as="geometry"/></mxCell><mxCell id="NYrXTHvHU7heu8sLdSl8-233" style="edgeStyle=orthogonalEdgeStyle;rounded=0;orthogonalLoop=1;jettySize=auto;html=1;entryX=1;entryY=0.5;entryDx=0;entryDy=0;fillColor=#f0a30a;strokeColor=#BD7000;shadow=0;" parent="1" source="NYrXTHvHU7heu8sLdSl8-214" target="78961159f06e98e8-39" edge="1"><mxGeometry relative="1" as="geometry"/></mxCell><mxCell id="NYrXTHvHU7heu8sLdSl8-214" value="Flame" style="swimlane;html=1;fontStyle=1;align=center;verticalAlign=top;childLayout=stackLayout;horizontal=1;startSize=26;horizontalStack=0;resizeParent=1;resizeLast=0;collapsible=1;marginBottom=0;swimlaneFillColor=#ffffff;rounded=0;shadow=0;comic=0;labelBackgroundColor=none;strokeWidth=1;fillColor=#f0a30a;fontFamily=Verdana;fontSize=12;strokeColor=#BD7000;fontColor=#000000;" parent="1" vertex="1"><mxGeometry x="1020" y="-610" width="240" height="372" as="geometry"/></mxCell><mxCell id="NYrXTHvHU7heu8sLdSl8-215" value="+ _Game_board GamrBoard" style="text;html=1;strokeColor=#BD7000;fillColor=#f0a30a;align=left;verticalAlign=top;spacingLeft=4;spacingRight=4;whiteSpace=wrap;overflow=hidden;rotatable=0;points=[[0,0.5],[1,0.5]];portConstraint=eastwest;fontColor=#000000;shadow=0;" parent="NYrXTHvHU7heu8sLdSl8-214" vertex="1"><mxGeometry y="26" width="240" height="26" as="geometry"/></mxCell><mxCell id="NYrXTHvHU7heu8sLdSl8-265" value="+ _direction int" style="text;html=1;strokeColor=#BD7000;fillColor=#f0a30a;align=left;verticalAlign=top;spacingLeft=4;spacingRight=4;whiteSpace=wrap;overflow=hidden;rotatable=0;points=[[0,0.5],[1,0.5]];portConstraint=eastwest;fontColor=#000000;shadow=0;" parent="NYrXTHvHU7heu8sLdSl8-214" vertex="1"><mxGeometry y="52" width="240" height="26" as="geometry"/></mxCell><mxCell id="NYrXTHvHU7heu8sLdSl8-267" value="+ _radius int" style="text;html=1;strokeColor=#BD7000;fillColor=#f0a30a;align=left;verticalAlign=top;spacingLeft=4;spacingRight=4;whiteSpace=wrap;overflow=hidden;rotatable=0;points=[[0,0.5],[1,0.5]];portConstraint=eastwest;fontColor=#000000;shadow=0;" parent="NYrXTHvHU7heu8sLdSl8-214" vertex="1"><mxGeometry y="78" width="240" height="26" as="geometry"/></mxCell><mxCell id="NYrXTHvHU7heu8sLdSl8-268" value="+ xOrigin int" style="text;html=1;strokeColor=#BD7000;fillColor=#f0a30a;align=left;verticalAlign=top;spacingLeft=4;spacingRight=4;whiteSpace=wrap;overflow=hidden;rotatable=0;points=[[0,0.5],[1,0.5]];portConstraint=eastwest;fontColor=#000000;shadow=0;" parent="NYrXTHvHU7heu8sLdSl8-214" vertex="1"><mxGeometry y="104" width="240" height="26" as="geometry"/></mxCell><mxCell id="NYrXTHvHU7heu8sLdSl8-264" value="+ yOrigin int" style="text;html=1;strokeColor=#BD7000;fillColor=#f0a30a;align=left;verticalAlign=top;spacingLeft=4;spacingRight=4;whiteSpace=wrap;overflow=hidden;rotatable=0;points=[[0,0.5],[1,0.5]];portConstraint=eastwest;fontColor=#000000;shadow=0;" parent="NYrXTHvHU7heu8sLdSl8-214" vertex="1"><mxGeometry y="130" width="240" height="26" as="geometry"/></mxCell><mxCell id="NYrXTHvHU7heu8sLdSl8-263" value="+ _flameSegments FlameSegment[]" style="text;html=1;strokeColor=#BD7000;fillColor=#f0a30a;align=left;verticalAlign=top;spacingLeft=4;spacingRight=4;whiteSpace=wrap;overflow=hidden;rotatable=0;points=[[0,0.5],[1,0.5]];portConstraint=eastwest;fontColor=#000000;shadow=0;" parent="NYrXTHvHU7heu8sLdSl8-214" vertex="1"><mxGeometry y="156" width="240" height="26" as="geometry"/></mxCell><mxCell id="NYrXTHvHU7heu8sLdSl8-216" value="" style="line;html=1;strokeWidth=1;fillColor=#f0a30a;align=left;verticalAlign=middle;spacingTop=-1;spacingLeft=3;spacingRight=3;rotatable=0;labelPosition=right;points=[];portConstraint=eastwest;strokeColor=#BD7000;fontColor=#000000;shadow=0;" parent="NYrXTHvHU7heu8sLdSl8-214" vertex="1"><mxGeometry y="182" width="240" height="8" as="geometry"/></mxCell><mxCell id="NYrXTHvHU7heu8sLdSl8-217" value="+ Flame(int, int, int, int, GamBoard)" style="text;html=1;strokeColor=#BD7000;fillColor=#f0a30a;align=left;verticalAlign=top;spacingLeft=4;spacingRight=4;whiteSpace=wrap;overflow=hidden;rotatable=0;points=[[0,0.5],[1,0.5]];portConstraint=eastwest;fontColor=#000000;shadow=0;" parent="NYrXTHvHU7heu8sLdSl8-214" vertex="1"><mxGeometry y="190" width="240" height="26" as="geometry"/></mxCell><mxCell id="NYrXTHvHU7heu8sLdSl8-218" value="+ createFlameSegments() void" style="text;html=1;strokeColor=#BD7000;fillColor=#f0a30a;align=left;verticalAlign=top;spacingLeft=4;spacingRight=4;whiteSpace=wrap;overflow=hidden;rotatable=0;points=[[0,0.5],[1,0.5]];portConstraint=eastwest;fontColor=#000000;shadow=0;" parent="NYrXTHvHU7heu8sLdSl8-214" vertex="1"><mxGeometry y="216" width="240" height="26" as="geometry"/></mxCell><mxCell id="NYrXTHvHU7heu8sLdSl8-219" value="+ calculatePermitedDistance() int" style="text;html=1;strokeColor=#BD7000;fillColor=#f0a30a;align=left;verticalAlign=top;spacingLeft=4;spacingRight=4;whiteSpace=wrap;overflow=hidden;rotatable=0;points=[[0,0.5],[1,0.5]];portConstraint=eastwest;fontColor=#000000;shadow=0;" parent="NYrXTHvHU7heu8sLdSl8-214" vertex="1"><mxGeometry y="242" width="240" height="26" as="geometry"/></mxCell><mxCell id="NYrXTHvHU7heu8sLdSl8-220" value="+ flameSegmentAt(int, int) FlameSegment" style="text;html=1;strokeColor=#BD7000;fillColor=#f0a30a;align=left;verticalAlign=top;spacingLeft=4;spacingRight=4;whiteSpace=wrap;overflow=hidden;rotatable=0;points=[[0,0.5],[1,0.5]];portConstraint=eastwest;fontColor=#000000;shadow=0;" parent="NYrXTHvHU7heu8sLdSl8-214" vertex="1"><mxGeometry y="268" width="240" height="26" as="geometry"/></mxCell><mxCell id="NYrXTHvHU7heu8sLdSl8-221" value="+ update() void" style="text;html=1;strokeColor=#BD7000;fillColor=#f0a30a;align=left;verticalAlign=top;spacingLeft=4;spacingRight=4;whiteSpace=wrap;overflow=hidden;rotatable=0;points=[[0,0.5],[1,0.5]];portConstraint=eastwest;fontColor=#000000;shadow=0;" parent="NYrXTHvHU7heu8sLdSl8-214" vertex="1"><mxGeometry y="294" width="240" height="26" as="geometry"/></mxCell><mxCell id="NYrXTHvHU7heu8sLdSl8-222" value="+ colllide(Entity) boolean" style="text;html=1;strokeColor=#BD7000;fillColor=#f0a30a;align=left;verticalAlign=top;spacingLeft=4;spacingRight=4;whiteSpace=wrap;overflow=hidden;rotatable=0;points=[[0,0.5],[1,0.5]];portConstraint=eastwest;fontColor=#000000;shadow=0;" parent="NYrXTHvHU7heu8sLdSl8-214" vertex="1"><mxGeometry y="320" width="240" height="26" as="geometry"/></mxCell><mxCell id="NYrXTHvHU7heu8sLdSl8-261" value="+ render(Screen) void" style="text;html=1;strokeColor=#BD7000;fillColor=#f0a30a;align=left;verticalAlign=top;spacingLeft=4;spacingRight=4;whiteSpace=wrap;overflow=hidden;rotatable=0;points=[[0,0.5],[1,0.5]];portConstraint=eastwest;fontColor=#000000;shadow=0;" parent="NYrXTHvHU7heu8sLdSl8-214" vertex="1"><mxGeometry y="346" width="240" height="26" as="geometry"/></mxCell><mxCell id="NYrXTHvHU7heu8sLdSl8-234" style="edgeStyle=orthogonalEdgeStyle;rounded=0;orthogonalLoop=1;jettySize=auto;html=1;entryX=1;entryY=0.5;entryDx=0;entryDy=0;exitX=0;exitY=0.008;exitDx=0;exitDy=0;exitPerimeter=0;fillColor=#f0a30a;strokeColor=#BD7000;shadow=0;" parent="1" source="NYrXTHvHU7heu8sLdSl8-224" target="78961159f06e98e8-34" edge="1"><mxGeometry relative="1" as="geometry"/></mxCell><mxCell id="NYrXTHvHU7heu8sLdSl8-223" value="FlameSegment" style="swimlane;html=1;fontStyle=1;align=center;verticalAlign=top;childLayout=stackLayout;horizontal=1;startSize=26;horizontalStack=0;resizeParent=1;resizeLast=0;collapsible=1;marginBottom=0;swimlaneFillColor=#ffffff;rounded=0;shadow=0;comic=0;labelBackgroundColor=none;strokeWidth=1;fillColor=#f0a30a;fontFamily=Verdana;fontSize=12;strokeColor=#BD7000;fontColor=#000000;" parent="1" vertex="1"><mxGeometry x="1280" y="-650" width="240" height="170" as="geometry"/></mxCell><mxCell id="NYrXTHvHU7heu8sLdSl8-224" value="+ _last boolean" style="text;html=1;strokeColor=#BD7000;fillColor=#f0a30a;align=left;verticalAlign=top;spacingLeft=4;spacingRight=4;whiteSpace=wrap;overflow=hidden;rotatable=0;points=[[0,0.5],[1,0.5]];portConstraint=eastwest;fontColor=#000000;shadow=0;" parent="NYrXTHvHU7heu8sLdSl8-223" vertex="1"><mxGeometry y="26" width="240" height="26" as="geometry"/></mxCell><mxCell id="NYrXTHvHU7heu8sLdSl8-225" value="" style="line;html=1;strokeWidth=1;fillColor=#f0a30a;align=left;verticalAlign=middle;spacingTop=-1;spacingLeft=3;spacingRight=3;rotatable=0;labelPosition=right;points=[];portConstraint=eastwest;strokeColor=#BD7000;fontColor=#000000;shadow=0;" parent="NYrXTHvHU7heu8sLdSl8-223" vertex="1"><mxGeometry y="52" width="240" height="8" as="geometry"/></mxCell><mxCell id="NYrXTHvHU7heu8sLdSl8-226" value="+ FlameSegment(int, int, int, boolean)" style="text;html=1;strokeColor=#BD7000;fillColor=#f0a30a;align=left;verticalAlign=top;spacingLeft=4;spacingRight=4;whiteSpace=wrap;overflow=hidden;rotatable=0;points=[[0,0.5],[1,0.5]];portConstraint=eastwest;fontColor=#000000;shadow=0;" parent="NYrXTHvHU7heu8sLdSl8-223" vertex="1"><mxGeometry y="60" width="240" height="26" as="geometry"/></mxCell><mxCell id="NYrXTHvHU7heu8sLdSl8-227" value="+ render(Screen) void" style="text;html=1;strokeColor=#BD7000;fillColor=#f0a30a;align=left;verticalAlign=top;spacingLeft=4;spacingRight=4;whiteSpace=wrap;overflow=hidden;rotatable=0;points=[[0,0.5],[1,0.5]];portConstraint=eastwest;fontColor=#000000;shadow=0;" parent="NYrXTHvHU7heu8sLdSl8-223" vertex="1"><mxGeometry y="86" width="240" height="26" as="geometry"/></mxCell><mxCell id="NYrXTHvHU7heu8sLdSl8-228" value="+ update() void" style="text;html=1;strokeColor=#BD7000;fillColor=#f0a30a;align=left;verticalAlign=top;spacingLeft=4;spacingRight=4;whiteSpace=wrap;overflow=hidden;rotatable=0;points=[[0,0.5],[1,0.5]];portConstraint=eastwest;fontColor=#000000;shadow=0;" parent="NYrXTHvHU7heu8sLdSl8-223" vertex="1"><mxGeometry y="112" width="240" height="26" as="geometry"/></mxCell><mxCell id="NYrXTHvHU7heu8sLdSl8-231" value="+ colllide(Entity) boolean" style="text;html=1;strokeColor=#BD7000;fillColor=#f0a30a;align=left;verticalAlign=top;spacingLeft=4;spacingRight=4;whiteSpace=wrap;overflow=hidden;rotatable=0;points=[[0,0.5],[1,0.5]];portConstraint=eastwest;fontColor=#000000;shadow=0;" parent="NYrXTHvHU7heu8sLdSl8-223" vertex="1"><mxGeometry y="138" width="240" height="26" as="geometry"/></mxCell><mxCell id="NYrXTHvHU7heu8sLdSl8-260" style="edgeStyle=orthogonalEdgeStyle;rounded=0;orthogonalLoop=1;jettySize=auto;html=1;fillColor=#f0a30a;strokeColor=#BD7000;shadow=0;" parent="1" source="NYrXTHvHU7heu8sLdSl8-235" target="78961159f06e98e8-43" edge="1"><mxGeometry relative="1" as="geometry"/></mxCell><mxCell id="NYrXTHvHU7heu8sLdSl8-235" value="Bomb" style="swimlane;html=1;fontStyle=1;align=center;verticalAlign=top;childLayout=stackLayout;horizontal=1;startSize=26;horizontalStack=0;resizeParent=1;resizeLast=0;collapsible=1;marginBottom=0;swimlaneFillColor=#ffffff;rounded=0;shadow=0;comic=0;labelBackgroundColor=none;strokeWidth=1;fillColor=#f0a30a;fontFamily=Verdana;fontSize=12;strokeColor=#BD7000;fontColor=#000000;" parent="1" vertex="1"><mxGeometry x="-50" y="-60" width="200" height="400" as="geometry"/></mxCell><mxCell id="NYrXTHvHU7heu8sLdSl8-237" value="+ _speed double" style="text;html=1;strokeColor=#BD7000;fillColor=#f0a30a;align=left;verticalAlign=top;spacingLeft=4;spacingRight=4;whiteSpace=wrap;overflow=hidden;rotatable=0;points=[[0,0.5],[1,0.5]];portConstraint=eastwest;fontColor=#000000;shadow=0;" parent="NYrXTHvHU7heu8sLdSl8-235" vertex="1"><mxGeometry y="26" width="200" height="26" as="geometry"/></mxCell><mxCell id="NYrXTHvHU7heu8sLdSl8-236" value="+ _Game_board GameBoard" style="text;html=1;strokeColor=#BD7000;fillColor=#f0a30a;align=left;verticalAlign=top;spacingLeft=4;spacingRight=4;whiteSpace=wrap;overflow=hidden;rotatable=0;points=[[0,0.5],[1,0.5]];portConstraint=eastwest;fontColor=#000000;shadow=0;" parent="NYrXTHvHU7heu8sLdSl8-235" vertex="1"><mxGeometry y="52" width="200" height="26" as="geometry"/></mxCell><mxCell id="NYrXTHvHU7heu8sLdSl8-238" value="+ _exploded boolean&amp;nbsp;" style="text;html=1;strokeColor=#BD7000;fillColor=#f0a30a;align=left;verticalAlign=top;spacingLeft=4;spacingRight=4;whiteSpace=wrap;overflow=hidden;rotatable=0;points=[[0,0.5],[1,0.5]];portConstraint=eastwest;fontColor=#000000;shadow=0;" parent="NYrXTHvHU7heu8sLdSl8-235" vertex="1"><mxGeometry y="78" width="200" height="26" as="geometry"/></mxCell><mxCell id="NYrXTHvHU7heu8sLdSl8-239" value="+ _timeToExplode int" style="text;html=1;strokeColor=#BD7000;fillColor=#f0a30a;align=left;verticalAlign=top;spacingLeft=4;spacingRight=4;whiteSpace=wrap;overflow=hidden;rotatable=0;points=[[0,0.5],[1,0.5]];portConstraint=eastwest;fontColor=#000000;shadow=0;" parent="NYrXTHvHU7heu8sLdSl8-235" vertex="1"><mxGeometry y="104" width="200" height="26" as="geometry"/></mxCell><mxCell id="NYrXTHvHU7heu8sLdSl8-240" value="+ _timeAfter int" style="text;html=1;strokeColor=#BD7000;fillColor=#f0a30a;align=left;verticalAlign=top;spacingLeft=4;spacingRight=4;whiteSpace=wrap;overflow=hidden;rotatable=0;points=[[0,0.5],[1,0.5]];portConstraint=eastwest;fontColor=#000000;shadow=0;" parent="NYrXTHvHU7heu8sLdSl8-235" vertex="1"><mxGeometry y="130" width="200" height="26" as="geometry"/></mxCell><mxCell id="NYrXTHvHU7heu8sLdSl8-241" value="+ _flames Flame[]" style="text;html=1;strokeColor=#BD7000;fillColor=#f0a30a;align=left;verticalAlign=top;spacingLeft=4;spacingRight=4;whiteSpace=wrap;overflow=hidden;rotatable=0;points=[[0,0.5],[1,0.5]];portConstraint=eastwest;fontColor=#000000;shadow=0;" parent="NYrXTHvHU7heu8sLdSl8-235" vertex="1"><mxGeometry y="156" width="200" height="26" as="geometry"/></mxCell><mxCell id="NYrXTHvHU7heu8sLdSl8-243" value="+ _allowedToPassThru boolean" style="text;html=1;strokeColor=#BD7000;fillColor=#f0a30a;align=left;verticalAlign=top;spacingLeft=4;spacingRight=4;whiteSpace=wrap;overflow=hidden;rotatable=0;points=[[0,0.5],[1,0.5]];portConstraint=eastwest;fontColor=#000000;shadow=0;" parent="NYrXTHvHU7heu8sLdSl8-235" vertex="1"><mxGeometry y="182" width="200" height="26" as="geometry"/></mxCell><mxCell id="NYrXTHvHU7heu8sLdSl8-244" value="" style="line;html=1;strokeWidth=1;fillColor=#f0a30a;align=left;verticalAlign=middle;spacingTop=-1;spacingLeft=3;spacingRight=3;rotatable=0;labelPosition=right;points=[];portConstraint=eastwest;strokeColor=#BD7000;fontColor=#000000;shadow=0;" parent="NYrXTHvHU7heu8sLdSl8-235" vertex="1"><mxGeometry y="208" width="200" height="8" as="geometry"/></mxCell><mxCell id="NYrXTHvHU7heu8sLdSl8-245" value="+ Bomb( int, int, GamBoard)" style="text;html=1;strokeColor=#BD7000;fillColor=#f0a30a;align=left;verticalAlign=top;spacingLeft=4;spacingRight=4;whiteSpace=wrap;overflow=hidden;rotatable=0;points=[[0,0.5],[1,0.5]];portConstraint=eastwest;fontColor=#000000;shadow=0;" parent="NYrXTHvHU7heu8sLdSl8-235" vertex="1"><mxGeometry y="216" width="200" height="26" as="geometry"/></mxCell><mxCell id="NYrXTHvHU7heu8sLdSl8-258" value="+ update() void" style="text;html=1;strokeColor=#BD7000;fillColor=#f0a30a;align=left;verticalAlign=top;spacingLeft=4;spacingRight=4;whiteSpace=wrap;overflow=hidden;rotatable=0;points=[[0,0.5],[1,0.5]];portConstraint=eastwest;fontColor=#000000;shadow=0;" parent="NYrXTHvHU7heu8sLdSl8-235" vertex="1"><mxGeometry y="242" width="200" height="26" as="geometry"/></mxCell><mxCell id="NYrXTHvHU7heu8sLdSl8-246" value="+ render( Screen) void" style="text;html=1;strokeColor=#BD7000;fillColor=#f0a30a;align=left;verticalAlign=top;spacingLeft=4;spacingRight=4;whiteSpace=wrap;overflow=hidden;rotatable=0;points=[[0,0.5],[1,0.5]];portConstraint=eastwest;fontColor=#000000;shadow=0;" parent="NYrXTHvHU7heu8sLdSl8-235" vertex="1"><mxGeometry y="268" width="200" height="26" as="geometry"/></mxCell><mxCell id="NYrXTHvHU7heu8sLdSl8-254" value="+ time_explode() void" style="text;html=1;strokeColor=#BD7000;fillColor=#f0a30a;align=left;verticalAlign=top;spacingLeft=4;spacingRight=4;whiteSpace=wrap;overflow=hidden;rotatable=0;points=[[0,0.5],[1,0.5]];portConstraint=eastwest;fontColor=#000000;shadow=0;" parent="NYrXTHvHU7heu8sLdSl8-235" vertex="1"><mxGeometry y="294" width="200" height="26" as="geometry"/></mxCell><mxCell id="NYrXTHvHU7heu8sLdSl8-255" value="+ explode() void" style="text;html=1;strokeColor=#BD7000;fillColor=#f0a30a;align=left;verticalAlign=top;spacingLeft=4;spacingRight=4;whiteSpace=wrap;overflow=hidden;rotatable=0;points=[[0,0.5],[1,0.5]];portConstraint=eastwest;fontColor=#000000;shadow=0;" parent="NYrXTHvHU7heu8sLdSl8-235" vertex="1"><mxGeometry y="320" width="200" height="26" as="geometry"/></mxCell><mxCell id="NYrXTHvHU7heu8sLdSl8-256" value="+ renderFlames( Screen) void" style="text;html=1;strokeColor=#BD7000;fillColor=#f0a30a;align=left;verticalAlign=top;spacingLeft=4;spacingRight=4;whiteSpace=wrap;overflow=hidden;rotatable=0;points=[[0,0.5],[1,0.5]];portConstraint=eastwest;fontColor=#000000;shadow=0;" parent="NYrXTHvHU7heu8sLdSl8-235" vertex="1"><mxGeometry y="346" width="200" height="26" as="geometry"/></mxCell><mxCell id="NYrXTHvHU7heu8sLdSl8-257" value="+ updateFlames() void" style="text;html=1;strokeColor=#BD7000;fillColor=#f0a30a;align=left;verticalAlign=top;spacingLeft=4;spacingRight=4;whiteSpace=wrap;overflow=hidden;rotatable=0;points=[[0,0.5],[1,0.5]];portConstraint=eastwest;fontColor=#000000;shadow=0;" parent="NYrXTHvHU7heu8sLdSl8-235" vertex="1"><mxGeometry y="372" width="200" height="26" as="geometry"/></mxCell><mxCell id="NYrXTHvHU7heu8sLdSl8-270" value="AM" style="swimlane;html=1;fontStyle=1;align=center;verticalAlign=top;childLayout=stackLayout;horizontal=1;startSize=26;horizontalStack=0;resizeParent=1;resizeLast=0;collapsible=1;marginBottom=0;swimlaneFillColor=#ffffff;rounded=0;shadow=0;comic=0;labelBackgroundColor=none;strokeWidth=1;fillColor=#f0a30a;fontFamily=Verdana;fontSize=12;strokeColor=#BD7000;fontColor=#000000;" parent="1" vertex="1"><mxGeometry x="1205" y="640" width="160" height="90" as="geometry"/></mxCell><mxCell id="NYrXTHvHU7heu8sLdSl8-282" value="+ random Random" style="text;html=1;strokeColor=#BD7000;fillColor=#f0a30a;align=left;verticalAlign=top;spacingLeft=4;spacingRight=4;whiteSpace=wrap;overflow=hidden;rotatable=0;points=[[0,0.5],[1,0.5]];portConstraint=eastwest;fontColor=#000000;shadow=0;" parent="NYrXTHvHU7heu8sLdSl8-270" vertex="1"><mxGeometry y="26" width="160" height="26" as="geometry"/></mxCell><mxCell id="NYrXTHvHU7heu8sLdSl8-271" value="" style="line;html=1;strokeWidth=1;fillColor=#f0a30a;align=left;verticalAlign=middle;spacingTop=-1;spacingLeft=3;spacingRight=3;rotatable=0;labelPosition=right;points=[];portConstraint=eastwest;strokeColor=#BD7000;fontColor=#000000;shadow=0;" parent="NYrXTHvHU7heu8sLdSl8-270" vertex="1"><mxGeometry y="52" width="160" height="8" as="geometry"/></mxCell><mxCell id="NYrXTHvHU7heu8sLdSl8-272" value="+ calculateDirection() int" style="text;html=1;strokeColor=#BD7000;fillColor=#f0a30a;align=left;verticalAlign=top;spacingLeft=4;spacingRight=4;whiteSpace=wrap;overflow=hidden;rotatable=0;points=[[0,0.5],[1,0.5]];portConstraint=eastwest;fontColor=#000000;shadow=0;" parent="NYrXTHvHU7heu8sLdSl8-270" vertex="1"><mxGeometry y="60" width="160" height="26" as="geometry"/></mxCell><mxCell id="NYrXTHvHU7heu8sLdSl8-288" style="edgeStyle=orthogonalEdgeStyle;rounded=0;orthogonalLoop=1;jettySize=auto;html=1;fillColor=#f0a30a;strokeColor=#BD7000;shadow=0;" parent="1" source="NYrXTHvHU7heu8sLdSl8-274" target="NYrXTHvHU7heu8sLdSl8-270" edge="1"><mxGeometry relative="1" as="geometry"/></mxCell><mxCell id="NYrXTHvHU7heu8sLdSl8-274" value="AMEnemy" style="swimlane;html=1;fontStyle=1;align=center;verticalAlign=top;childLayout=stackLayout;horizontal=1;startSize=26;horizontalStack=0;resizeParent=1;resizeLast=0;collapsible=1;marginBottom=0;swimlaneFillColor=#ffffff;rounded=0;shadow=0;comic=0;labelBackgroundColor=none;strokeWidth=1;fillColor=#f0a30a;fontFamily=Verdana;fontSize=12;strokeColor=#BD7000;fontColor=#000000;" parent="1" vertex="1"><mxGeometry x="1100" y="780" width="170" height="190" as="geometry"/></mxCell><mxCell id="NYrXTHvHU7heu8sLdSl8-285" value="+ _bomber Bomber" style="text;html=1;strokeColor=#BD7000;fillColor=#f0a30a;align=left;verticalAlign=top;spacingLeft=4;spacingRight=4;whiteSpace=wrap;overflow=hidden;rotatable=0;points=[[0,0.5],[1,0.5]];portConstraint=eastwest;fontColor=#000000;shadow=0;" parent="NYrXTHvHU7heu8sLdSl8-274" vertex="1"><mxGeometry y="26" width="170" height="26" as="geometry"/></mxCell><mxCell id="NYrXTHvHU7heu8sLdSl8-284" value="+ _e Enemy" style="text;html=1;strokeColor=#BD7000;fillColor=#f0a30a;align=left;verticalAlign=top;spacingLeft=4;spacingRight=4;whiteSpace=wrap;overflow=hidden;rotatable=0;points=[[0,0.5],[1,0.5]];portConstraint=eastwest;fontColor=#000000;shadow=0;" parent="NYrXTHvHU7heu8sLdSl8-274" vertex="1"><mxGeometry y="52" width="170" height="26" as="geometry"/></mxCell><mxCell id="NYrXTHvHU7heu8sLdSl8-275" value="" style="line;html=1;strokeWidth=1;fillColor=#f0a30a;align=left;verticalAlign=middle;spacingTop=-1;spacingLeft=3;spacingRight=3;rotatable=0;labelPosition=right;points=[];portConstraint=eastwest;strokeColor=#BD7000;fontColor=#000000;shadow=0;" parent="NYrXTHvHU7heu8sLdSl8-274" vertex="1"><mxGeometry y="78" width="170" height="8" as="geometry"/></mxCell><mxCell id="NYrXTHvHU7heu8sLdSl8-276" value="+ AMEnemy(Bomber, Enemy)" style="text;html=1;strokeColor=#BD7000;fillColor=#f0a30a;align=left;verticalAlign=top;spacingLeft=4;spacingRight=4;whiteSpace=wrap;overflow=hidden;rotatable=0;points=[[0,0.5],[1,0.5]];portConstraint=eastwest;fontColor=#000000;shadow=0;" parent="NYrXTHvHU7heu8sLdSl8-274" vertex="1"><mxGeometry y="86" width="170" height="26" as="geometry"/></mxCell><mxCell id="NYrXTHvHU7heu8sLdSl8-277" value="+ calculateDirection() int" style="text;html=1;strokeColor=#BD7000;fillColor=#f0a30a;align=left;verticalAlign=top;spacingLeft=4;spacingRight=4;whiteSpace=wrap;overflow=hidden;rotatable=0;points=[[0,0.5],[1,0.5]];portConstraint=eastwest;fontColor=#000000;shadow=0;" parent="NYrXTHvHU7heu8sLdSl8-274" vertex="1"><mxGeometry y="112" width="170" height="26" as="geometry"/></mxCell><mxCell id="NYrXTHvHU7heu8sLdSl8-283" value="+ calculateColDirection() int" style="text;html=1;strokeColor=#BD7000;fillColor=#f0a30a;align=left;verticalAlign=top;spacingLeft=4;spacingRight=4;whiteSpace=wrap;overflow=hidden;rotatable=0;points=[[0,0.5],[1,0.5]];portConstraint=eastwest;fontColor=#000000;shadow=0;" parent="NYrXTHvHU7heu8sLdSl8-274" vertex="1"><mxGeometry y="138" width="170" height="26" as="geometry"/></mxCell><mxCell id="NYrXTHvHU7heu8sLdSl8-286" value="+ calculateRowDirection() int" style="text;html=1;strokeColor=#BD7000;fillColor=#f0a30a;align=left;verticalAlign=top;spacingLeft=4;spacingRight=4;whiteSpace=wrap;overflow=hidden;rotatable=0;points=[[0,0.5],[1,0.5]];portConstraint=eastwest;fontColor=#000000;shadow=0;" parent="NYrXTHvHU7heu8sLdSl8-274" vertex="1"><mxGeometry y="164" width="170" height="26" as="geometry"/></mxCell><mxCell id="NYrXTHvHU7heu8sLdSl8-289" style="edgeStyle=orthogonalEdgeStyle;rounded=0;orthogonalLoop=1;jettySize=auto;html=1;entryX=0.998;entryY=0.144;entryDx=0;entryDy=0;entryPerimeter=0;fillColor=#f0a30a;strokeColor=#BD7000;shadow=0;" parent="1" source="NYrXTHvHU7heu8sLdSl8-278" target="NYrXTHvHU7heu8sLdSl8-270" edge="1"><mxGeometry relative="1" as="geometry"/></mxCell><mxCell id="NYrXTHvHU7heu8sLdSl8-278" value="AmNormal" style="swimlane;html=1;fontStyle=1;align=center;verticalAlign=top;childLayout=stackLayout;horizontal=1;startSize=26;horizontalStack=0;resizeParent=1;resizeLast=0;collapsible=1;marginBottom=0;swimlaneFillColor=#ffffff;rounded=0;shadow=0;comic=0;labelBackgroundColor=none;strokeWidth=1;fillColor=#f0a30a;fontFamily=Verdana;fontSize=12;strokeColor=#BD7000;fontColor=#000000;" parent="1" vertex="1"><mxGeometry x="1310" y="790" width="160" height="86" as="geometry"/></mxCell><mxCell id="NYrXTHvHU7heu8sLdSl8-279" value="" style="line;html=1;strokeWidth=1;fillColor=#f0a30a;align=left;verticalAlign=middle;spacingTop=-1;spacingLeft=3;spacingRight=3;rotatable=0;labelPosition=right;points=[];portConstraint=eastwest;strokeColor=#BD7000;fontColor=#000000;shadow=0;" parent="NYrXTHvHU7heu8sLdSl8-278" vertex="1"><mxGeometry y="26" width="160" height="8" as="geometry"/></mxCell><mxCell id="NYrXTHvHU7heu8sLdSl8-281" value="+ calculateDirection() int" style="text;html=1;strokeColor=#BD7000;fillColor=#f0a30a;align=left;verticalAlign=top;spacingLeft=4;spacingRight=4;whiteSpace=wrap;overflow=hidden;rotatable=0;points=[[0,0.5],[1,0.5]];portConstraint=eastwest;fontColor=#000000;shadow=0;" parent="NYrXTHvHU7heu8sLdSl8-278" vertex="1"><mxGeometry y="34" width="160" height="26" as="geometry"/></mxCell></root></mxGraphModel></diagram></mxfile>